<?xml version="1.0" encoding="UTF-8" standalone="no"?>
<!-- Svg Vector Icons : http://www.onlinewebfonts.com/icon -->

<svg
   xmlns:dc="http://purl.org/dc/elements/1.1/"
   xmlns:cc="http://creativecommons.org/ns#"
   xmlns:rdf="http://www.w3.org/1999/02/22-rdf-syntax-ns#"
   xmlns:svg="http://www.w3.org/2000/svg"
   xmlns="http://www.w3.org/2000/svg"
   xmlns:sodipodi="http://sodipodi.sourceforge.net/DTD/sodipodi-0.dtd"
   xmlns:inkscape="http://www.inkscape.org/namespaces/inkscape"
   version="1.1"
   x="0px"
   y="0px"
   viewBox="0 0 1000 1000"
   enable-background="new 0 0 1000 1000"
   xml:space="preserve"
   id="svg8"
   sodipodi:docname="CloseButton.svg"
   inkscape:version="0.92.4 (5da689c313, 2019-01-14)"
   inkscape:export-filename="/home/hugo/qx/examples/compositor/src/style2/icons-ldpi/CloseButton.png"
   inkscape:export-xdpi="1.824"
   inkscape:export-ydpi="1.824"><defs
   id="defs12" /><sodipodi:namedview
   pagecolor="#ffffff"
   bordercolor="#666666"
   borderopacity="1"
   objecttolerance="10"
   gridtolerance="10"
   guidetolerance="10"
   inkscape:pageopacity="0"
   inkscape:pageshadow="2"
   inkscape:window-width="1457"
   inkscape:window-height="756"
   id="namedview10"
   showgrid="false"
   inkscape:pagecheckerboard="true"
   inkscape:zoom="0.472"
   inkscape:cx="471.87492"
   inkscape:cy="448.65361"
   inkscape:window-x="0"
   inkscape:window-y="27"
   inkscape:window-maximized="0"
   inkscape:current-layer="g6" />
<metadata
   id="metadata2"> Svg Vector Icons : http://www.onlinewebfonts.com/icon <rdf:RDF><cc:Work
     rdf:about=""><dc:format>image/svg+xml</dc:format><dc:type
       rdf:resource="http://purl.org/dc/dcmitype/StillImage" /><dc:title /></cc:Work></rdf:RDF></metadata>
<g
   id="g6"><path
     d="M846.5,153.5c-191.4-191.4-501.6-191.4-693,0c-191.4,191.4-191.4,501.6,0,693c191.4,191.4,501.6,191.4,693,0C1037.8,655.1,1037.8,344.9,846.5,153.5L846.5,153.5z M618.7,717.7L500,599L381.2,717.7c-27.4,27.4-71.8,27.3-99,0c-27.3-27.3-27.3-71.7,0-99L401,500L282.3,381.2c-27.4-27.4-27.3-71.8,0-99c27.3-27.3,71.7-27.3,99,0L500,401l118.7-118.7c27.4-27.4,71.8-27.3,99,0c27.3,27.3,27.3,71.7,0,99L599,500l118.7,118.7c27.4,27.4,27.3,71.8,0,99C690.5,745.1,646.1,745.1,618.7,717.7L618.7,717.7z"
     id="path4"
     style="fill:#ffffff;fill-opacity:1" /></g>
</svg>