<?xml version="1.0" encoding="UTF-8" standalone="no"?>
<!-- Generator: Adobe Illustrator 19.0.0, SVG Export Plug-In . SVG Version: 6.00 Build 0)  -->

<svg
   xmlns:dc="http://purl.org/dc/elements/1.1/"
   xmlns:cc="http://creativecommons.org/ns#"
   xmlns:rdf="http://www.w3.org/1999/02/22-rdf-syntax-ns#"
   xmlns:svg="http://www.w3.org/2000/svg"
   xmlns="http://www.w3.org/2000/svg"
   xmlns:sodipodi="http://sodipodi.sourceforge.net/DTD/sodipodi-0.dtd"
   xmlns:inkscape="http://www.inkscape.org/namespaces/inkscape"
   version="1.1"
   id="Capa_1"
   x="0px"
   y="0px"
   viewBox="0 0 489.2 489.2"
   style="enable-background:new 0 0 489.2 489.2;"
   xml:space="preserve"
   sodipodi:docname="ExportFootage.svg"
   inkscape:version="0.92.4 (5da689c313, 2019-01-14)"><metadata
   id="metadata41"><rdf:RDF><cc:Work
       rdf:about=""><dc:format>image/svg+xml</dc:format><dc:type
         rdf:resource="http://purl.org/dc/dcmitype/StillImage" /><dc:title></dc:title></cc:Work></rdf:RDF></metadata><defs
   id="defs39" /><sodipodi:namedview
   pagecolor="#ffffff"
   bordercolor="#666666"
   borderopacity="1"
   objecttolerance="10"
   gridtolerance="10"
   guidetolerance="10"
   inkscape:pageopacity="0"
   inkscape:pageshadow="2"
   inkscape:window-width="1265"
   inkscape:window-height="719"
   id="namedview37"
   showgrid="false"
   inkscape:pagecheckerboard="true"
   inkscape:zoom="0.48242027"
   inkscape:cx="244.60001"
   inkscape:cy="244.60001"
   inkscape:window-x="272"
   inkscape:window-y="223"
   inkscape:window-maximized="0"
   inkscape:current-layer="g4" />
<g
   id="g4">
	<path
   d="M439.6,0h-390C22.2,0,0,22.2,0,49.6v390c0,27.4,22.2,49.6,49.6,49.6h390c27.4,0,49.6-22.2,49.6-49.6V49.7   C489.3,22.3,467,0,439.6,0z M300.6,47.8h42.5v42.5h-42.5V47.8z M223.4,47.8h42.5v42.5h-42.5V47.8L223.4,47.8z M146.1,47.8h42.5   v42.5h-42.5V47.8z M111.3,441.6H68.8v-42.5h42.5V441.6z M111.3,90.3H68.8V47.8h42.5V90.3z M188.6,441.6h-42.5v-42.5h42.5V441.6z    M265.8,441.6h-42.5v-42.5h42.5V441.6z M343.1,441.6h-42.5v-42.5h42.5V441.6z M352.5,256.7l-163.1,94.2c-9.2,5.3-20.8-1.3-20.8-12   V150.5c0-10.7,11.6-17.3,20.8-12l163.1,94.2C361.8,238,361.8,251.4,352.5,256.7z M420.4,441.6h-42.5v-42.5h42.5V441.6z M420.4,90.3   h-42.5V47.8h42.5V90.3z"
   id="path2"
   style="fill:#29abe2;fill-opacity:1"
   inkscape:export-filename="/home/hugo/qx/examples/compositor/src/style2/icons-ldpi/ExportFootage.png"
   inkscape:export-xdpi="4.1210136"
   inkscape:export-ydpi="4.1210136" />
</g>
<g
   id="g6">
</g>
<g
   id="g8">
</g>
<g
   id="g10">
</g>
<g
   id="g12">
</g>
<g
   id="g14">
</g>
<g
   id="g16">
</g>
<g
   id="g18">
</g>
<g
   id="g20">
</g>
<g
   id="g22">
</g>
<g
   id="g24">
</g>
<g
   id="g26">
</g>
<g
   id="g28">
</g>
<g
   id="g30">
</g>
<g
   id="g32">
</g>
<g
   id="g34">
</g>
</svg>