<?xml version="1.0" encoding="UTF-8" standalone="no"?>
<svg
   xmlns:dc="http://purl.org/dc/elements/1.1/"
   xmlns:cc="http://creativecommons.org/ns#"
   xmlns:rdf="http://www.w3.org/1999/02/22-rdf-syntax-ns#"
   xmlns:svg="http://www.w3.org/2000/svg"
   xmlns="http://www.w3.org/2000/svg"
   xmlns:sodipodi="http://sodipodi.sourceforge.net/DTD/sodipodi-0.dtd"
   xmlns:inkscape="http://www.inkscape.org/namespaces/inkscape"
   height="93"
   id="Capa_1"
   version="1.1"
   viewBox="0 0 92.999999 93"
   width="93"
   xml:space="preserve"
   sodipodi:docname="HelpButton.svg"
   inkscape:version="0.92.4 (5da689c313, 2019-01-14)"
   inkscape:export-filename="/home/hugo/qx/examples/compositor/src/style2/icons-ldpi/HelpButton.png"
   inkscape:export-xdpi="19.612904"
   inkscape:export-ydpi="19.612904"><metadata
     id="metadata39"><rdf:RDF><cc:Work
         rdf:about=""><dc:format>image/svg+xml</dc:format><dc:type
           rdf:resource="http://purl.org/dc/dcmitype/StillImage" /><dc:title></dc:title></cc:Work></rdf:RDF></metadata><defs
     id="defs37" /><sodipodi:namedview
     pagecolor="#ffffff"
     bordercolor="#666666"
     borderopacity="1"
     objecttolerance="10"
     gridtolerance="10"
     guidetolerance="10"
     inkscape:pageopacity="0"
     inkscape:pageshadow="2"
     inkscape:window-width="1451"
     inkscape:window-height="702"
     id="namedview35"
     showgrid="false"
     inkscape:zoom="5.1304348"
     inkscape:cx="19.880857"
     inkscape:cy="41.322034"
     inkscape:window-x="178"
     inkscape:window-y="124"
     inkscape:window-maximized="0"
     inkscape:current-layer="Capa_1"
     inkscape:pagecheckerboard="true" /><path
     d="m 45.969746,0.41925424 c -25.403,0.34 -45.71900024,21.21099976 -45.38100024,46.61499976 0.34,25.393 21.20900024,45.715 46.61100024,45.377 25.398,-0.342 45.718,-21.213 45.38,-46.615 -0.34,-25.395 -21.21,-45.71599976 -46.61,-45.37699976 z m -0.136,73.99599976 -0.254,-0.004 c -3.912,-0.116 -6.67,-2.998 -6.559,-6.852 0.109,-3.788 2.934,-6.538 6.717,-6.538 l 0.227,0.004 c 4.021,0.119 6.748,2.972 6.635,6.937 -0.112,3.799 -2.893,6.453 -6.766,6.453 z m 16.455,-32.659 c -0.92,1.307 -2.943,2.93 -5.492,4.916 l -2.807,1.938 c -1.541,1.198 -2.471,2.325 -2.82,3.434 -0.275,0.873 -0.41,1.104 -0.434,2.88 l -0.004,0.451 h -10.718 l 0.031,-0.907 c 0.131,-3.728 0.223,-5.921 1.768,-7.733 2.424,-2.846 7.771,-6.289 7.998,-6.435 0.766,-0.577 1.412,-1.234 1.893,-1.936 1.125,-1.551 1.623,-2.772 1.623,-3.972 0,-1.665 -0.494,-3.205 -1.471,-4.576 -0.939,-1.323 -2.723,-1.993 -5.303,-1.993 -2.559,0 -4.311,0.812 -5.359,2.478 -1.078,1.713 -1.623,3.512 -1.623,5.35 v 0.457 h -11.051 l 0.02,-0.477 c 0.285,-6.769 2.701,-11.643 7.178,-14.487 2.813,-1.811 6.313,-2.729 10.397,-2.729 5.346,0 9.859,1.299 13.412,3.861 3.6,2.596 5.426,6.484 5.426,11.556 0,2.837 -0.896,5.502 -2.664,7.924 z"
     id="path2"
     style="fill:#ffffff;fill-opacity:1;stroke:none;stroke-opacity:1"
     inkscape:export-filename="/home/hugo/qx/examples/compositor/src/style2/icons-ldpi/HelpButton.png"
     inkscape:export-xdpi="19.826015"
     inkscape:export-ydpi="19.826015"
     inkscape:connector-curvature="0" /><g
     id="g4"
     transform="translate(0,1)" /><g
     id="g6"
     transform="translate(0,1)" /><g
     id="g8"
     transform="translate(0,1)" /><g
     id="g10"
     transform="translate(0,1)" /><g
     id="g12"
     transform="translate(0,1)" /><g
     id="g14"
     transform="translate(0,1)" /><g
     id="g16"
     transform="translate(0,1)" /><g
     id="g18"
     transform="translate(0,1)" /><g
     id="g20"
     transform="translate(0,1)" /><g
     id="g22"
     transform="translate(0,1)" /><g
     id="g24"
     transform="translate(0,1)" /><g
     id="g26"
     transform="translate(0,1)" /><g
     id="g28"
     transform="translate(0,1)" /><g
     id="g30"
     transform="translate(0,1)" /><g
     id="g32"
     transform="translate(0,1)" /></svg>