<?xml version="1.0" encoding="UTF-8" standalone="no"?>
<!-- Svg Vector Icons : http://www.onlinewebfonts.com/icon -->

<svg
   xmlns:dc="http://purl.org/dc/elements/1.1/"
   xmlns:cc="http://creativecommons.org/ns#"
   xmlns:rdf="http://www.w3.org/1999/02/22-rdf-syntax-ns#"
   xmlns:svg="http://www.w3.org/2000/svg"
   xmlns="http://www.w3.org/2000/svg"
   xmlns:sodipodi="http://sodipodi.sourceforge.net/DTD/sodipodi-0.dtd"
   xmlns:inkscape="http://www.inkscape.org/namespaces/inkscape"
   version="1.1"
   x="0px"
   y="0px"
   viewBox="0 0 1000 1000"
   enable-background="new 0 0 1000 1000"
   xml:space="preserve"
   id="svg8"
   sodipodi:docname="Minimize.svg"
   inkscape:version="0.92.4 (5da689c313, 2019-01-14)"
   inkscape:export-filename="/home/hugo/qx/examples/compositor/src/iconatlas/icons-ldpi/MinimizeButton.png"
   inkscape:export-xdpi="1.8610346"
   inkscape:export-ydpi="1.8610346"><defs
   id="defs12" /><sodipodi:namedview
   pagecolor="#ffffff"
   bordercolor="#666666"
   borderopacity="1"
   objecttolerance="10"
   gridtolerance="10"
   guidetolerance="10"
   inkscape:pageopacity="0"
   inkscape:pageshadow="2"
   inkscape:window-width="989"
   inkscape:window-height="756"
   id="namedview10"
   showgrid="false"
   inkscape:pagecheckerboard="true"
   inkscape:zoom="0.472"
   inkscape:cx="48.146108"
   inkscape:cy="450.77225"
   inkscape:window-x="219"
   inkscape:window-y="144"
   inkscape:window-maximized="0"
   inkscape:current-layer="g6" />
<metadata
   id="metadata2"> Svg Vector Icons : http://www.onlinewebfonts.com/icon <rdf:RDF><cc:Work
     rdf:about=""><dc:format>image/svg+xml</dc:format><dc:type
       rdf:resource="http://purl.org/dc/dcmitype/StillImage" /><dc:title /></cc:Work></rdf:RDF></metadata>
<g
   id="g6"><path
     d="m 846.5,153.5 c -191.4,-191.4 -501.6,-191.4 -693,0 -191.4,191.4 -191.4,501.6 0,693 191.4,191.4 501.6,191.4 693,0 191.3,-191.4 191.3,-501.6 0,-693 z M 227.11526,569.39491 c -17.39077,-26.33092 -32.31909,-72.8017 -0.74202,-100.74552 61.38417,1.03198 133.21697,-0.0376 195.21368,-3.55727 -1.33127,-66.72086 -18.29351,-202.93715 8.71701,-230.5724 27.01052,-27.63525 269.07877,-27.36011 295.87065,7.52605 26.79187,34.88615 43.30027,474.05397 10.59321,505.31525 -32.70705,31.26128 -229.30016,23.80366 -266.25404,6.98285 -36.95387,-16.82082 -38.18034,-68.17575 -45.17178,-184.50823 -61.1562,1.18242 -137.72908,1.06922 -198.22671,-0.44073 z"
     id="path4"
     style="fill:#ffffff;fill-opacity:1"
     inkscape:connector-curvature="0"
     sodipodi:nodetypes="cssccccczzzzcc" /></g>
</svg>