<?xml version="1.0" encoding="UTF-8" standalone="no"?>
<!-- Svg Vector Icons : http://www.onlinewebfonts.com/icon -->

<svg
   xmlns:dc="http://purl.org/dc/elements/1.1/"
   xmlns:cc="http://creativecommons.org/ns#"
   xmlns:rdf="http://www.w3.org/1999/02/22-rdf-syntax-ns#"
   xmlns:svg="http://www.w3.org/2000/svg"
   xmlns="http://www.w3.org/2000/svg"
   xmlns:sodipodi="http://sodipodi.sourceforge.net/DTD/sodipodi-0.dtd"
   xmlns:inkscape="http://www.inkscape.org/namespaces/inkscape"
   version="1.1"
   x="0px"
   y="0px"
   viewBox="0 0 1000 1000"
   enable-background="new 0 0 1000 1000"
   xml:space="preserve"
   id="svg8"
   sodipodi:docname="Minimize.svg"
   inkscape:version="0.92.4 (5da689c313, 2019-01-14)"
   inkscape:export-filename="/home/hugo/qx/examples/compositor/src/iconatlas/icons-ldpi/MinimizeButton.png"
   inkscape:export-xdpi="1.8610346"
   inkscape:export-ydpi="1.8610346"><defs
   id="defs12" /><sodipodi:namedview
   pagecolor="#ffffff"
   bordercolor="#666666"
   borderopacity="1"
   objecttolerance="10"
   gridtolerance="10"
   guidetolerance="10"
   inkscape:pageopacity="0"
   inkscape:pageshadow="2"
   inkscape:window-width="1920"
   inkscape:window-height="960"
   id="namedview10"
   showgrid="false"
   inkscape:pagecheckerboard="true"
   inkscape:zoom="0.944"
   inkscape:cx="339.45967"
   inkscape:cy="461.36547"
   inkscape:window-x="0"
   inkscape:window-y="27"
   inkscape:window-maximized="1"
   inkscape:current-layer="g6" />
<metadata
   id="metadata2"> Svg Vector Icons : http://www.onlinewebfonts.com/icon <rdf:RDF><cc:Work
     rdf:about=""><dc:format>image/svg+xml</dc:format><dc:type
       rdf:resource="http://purl.org/dc/dcmitype/StillImage" /><dc:title /></cc:Work></rdf:RDF></metadata>
<g
   id="g6"><path
     d="m 846.5,153.5 c -191.4,-191.4 -501.6,-191.4 -693,0 -191.4,191.4 -191.4,501.6 0,693 191.4,191.4 501.6,191.4 693,0 191.3,-191.4 191.3,-501.6 0,-693 z M 267.3695,789.73389 c 2.06527,-52.99416 -7.48033,-135.31453 7.73255,-185.49128 C 300.33934,521.0023 400.6093,450.07136 466.07845,435.4311 616.38888,401.81858 594.28081,277.61968 599.79546,198.50277 c 31.4079,0.8695 28.60169,2.11864 90.36217,1.17012 -7.10643,187.42852 -20.62291,253.50251 -139.83052,299.80677 -100.43718,31.65921 -128.53603,23.00605 -178.33031,103.38116 -9.88736,27.40342 -9.12094,114.93888 -8.09551,183.07651 -47.76425,2.72114 -54.37687,5.09796 -96.53179,3.79656 z"
     id="path4"
     style="fill:#ffffff;fill-opacity:1"
     inkscape:connector-curvature="0"
     sodipodi:nodetypes="csscccsscccccc"
     inkscape:export-filename="/home/hugo/qx/examples/compositor/src/iconatlas/icons-ldpi/MinimizeButton.png"
     inkscape:export-xdpi="1.8610346"
     inkscape:export-ydpi="1.8610346" /></g>
</svg>