<?xml version="1.0" encoding="UTF-8" standalone="no"?>
<!-- Generator: Adobe Illustrator 16.0.0, SVG Export Plug-In . SVG Version: 6.00 Build 0)  -->

<svg
   xmlns:dc="http://purl.org/dc/elements/1.1/"
   xmlns:cc="http://creativecommons.org/ns#"
   xmlns:rdf="http://www.w3.org/1999/02/22-rdf-syntax-ns#"
   xmlns:svg="http://www.w3.org/2000/svg"
   xmlns="http://www.w3.org/2000/svg"
   xmlns:sodipodi="http://sodipodi.sourceforge.net/DTD/sodipodi-0.dtd"
   xmlns:inkscape="http://www.inkscape.org/namespaces/inkscape"
   version="1.1"
   id="Capa_1"
   x="0px"
   y="0px"
   width="545.487px"
   height="545.487px"
   viewBox="0 0 545.487 545.487"
   style="enable-background:new 0 0 545.487 545.487;"
   xml:space="preserve"
   sodipodi:docname="PingPong.svg"
   inkscape:version="0.92.4 (5da689c313, 2019-01-14)"
   inkscape:export-filename="/home/hugo/qx/examples/compositor/src/iconatlas/icons-ldpi/PingPong.png"
   inkscape:export-xdpi="5.5795112"
   inkscape:export-ydpi="5.5795112"><metadata
   id="metadata41"><rdf:RDF><cc:Work
       rdf:about=""><dc:format>image/svg+xml</dc:format><dc:type
         rdf:resource="http://purl.org/dc/dcmitype/StillImage" /><dc:title /></cc:Work></rdf:RDF></metadata><defs
   id="defs39" /><sodipodi:namedview
   pagecolor="#ffffff"
   bordercolor="#666666"
   borderopacity="1"
   objecttolerance="10"
   gridtolerance="10"
   guidetolerance="10"
   inkscape:pageopacity="0"
   inkscape:pageshadow="2"
   inkscape:window-width="1920"
   inkscape:window-height="960"
   id="namedview37"
   showgrid="false"
   inkscape:pagecheckerboard="true"
   inkscape:zoom="0.86528185"
   inkscape:cx="48.539094"
   inkscape:cy="268.12073"
   inkscape:window-x="0"
   inkscape:window-y="27"
   inkscape:window-maximized="1"
   inkscape:current-layer="g4" />
<g
   id="g4">
	<path
   d="m 329.68009,290.90765 -217.2561,-0.15453 v 0 H 99.84984 l 0.84115,41.632 c 0.579,1.469 0.106,3.142 -1.152,4.091 -1.266,0.957 -3.003,0.951 -4.256,-0.018 l -86.1230004,-66.198 c -0.872,-0.665 -1.374,-1.696 -1.374,-2.784 0,-1.09 0.502,-2.125 1.374,-2.79 l 86.1230004,-66.204 c 0.632,-0.496 1.389,-0.733 2.146,-0.733 0.745,0 1.489,0.231 2.116,0.707 1.259,0.952 1.731,2.627 1.146,4.093 l 0.32555,42.21385 11.41245,-0.57785 v -0.006 l 217.2511,0.14453 z m 123.996,-92.292 c -1.253,-0.964 -2.991,-0.97 -4.256,-0.012 -1.259,0.951 -1.731,2.63 -1.149,4.09 l 0.2583,41.05215 -11.9943,0.57785 v 0 h -106.855 v 46.584 h 106.843 v -0.007 l 11.9933,-1.73354 -0.2583,43.36354 c -0.582,1.472 -0.109,3.15 1.149,4.096 0.63,0.479 1.375,0.71 2.119,0.71 0.75,0 1.513,-0.236 2.143,-0.733 l 86.12,-66.2 c 0.875,-0.668 1.377,-1.696 1.377,-2.79 0,-1.1 -0.502,-2.122 -1.377,-2.79 z"
   id="path2"
   inkscape:connector-curvature="0"
   sodipodi:nodetypes="ccccccccsccsccccccccccccccccccccsccscc"
   style="fill:#ffffff;fill-opacity:1" />
</g>
<g
   id="g6">
</g>
<g
   id="g8">
</g>
<g
   id="g10">
</g>
<g
   id="g12">
</g>
<g
   id="g14">
</g>
<g
   id="g16">
</g>
<g
   id="g18">
</g>
<g
   id="g20">
</g>
<g
   id="g22">
</g>
<g
   id="g24">
</g>
<g
   id="g26">
</g>
<g
   id="g28">
</g>
<g
   id="g30">
</g>
<g
   id="g32">
</g>
<g
   id="g34">
</g>
</svg>