<?xml version="1.0" encoding="utf-8"?>
<!-- Svg Vector Icons : http://www.onlinewebfonts.com/icon -->
<!DOCTYPE svg PUBLIC "-//W3C//DTD SVG 1.1//EN" "http://www.w3.org/Graphics/SVG/1.1/DTD/svg11.dtd">
<svg version="1.1" xmlns="http://www.w3.org/2000/svg" xmlns:xlink="http://www.w3.org/1999/xlink" x="0px" y="0px" viewBox="0 0 1000 1000" enable-background="new 0 0 1000 1000" xml:space="preserve">
<metadata> Svg Vector Icons : http://www.onlinewebfonts.com/icon </metadata>
<g><path d="M952.3,424.6h-45.2c-20.7,0-42.7-16.2-48.9-36l-25.9-63.1c-9.8-18.3-5.8-45.2,8.8-59.9l32.1-32c14.7-14.7,14.7-38.7,0-53.4l-53.3-53.3c-14.7-14.7-38.7-14.7-53.4,0l-32.1,32.1c-14.6,14.7-41.6,18.7-59.9,8.8l-63-26c-19.8-6.1-36-28.1-36-48.9l0-45.2c0-20.7-17-37.7-37.7-37.7h-75.4c-20.8,0-37.7,17-37.7,37.7V93c0,20.8-16.2,42.7-36,48.9l-63.1,26c-18.3,9.8-45.2,5.9-59.8-8.8l-32.2-32.1c-14.6-14.7-38.6-14.7-53.2,0l-53.3,53.3c-14.7,14.7-14.7,38.7,0,53.4l32,32.1c14.7,14.7,18.7,41.6,8.9,59.9l-26,63.2c-6.1,19.8-28.1,36-48.9,36l-45.2,0c-20.8,0-37.7,17-37.7,37.7v75.3c0,20.7,17,37.7,37.7,37.7h45.2c20.8,0.1,42.7,16.3,48.8,36l26.1,63.1c9.8,18.3,5.8,45.3-8.9,59.9l-32.1,32.1c-14.6,14.7-14.6,38.7,0,53.4l53.4,53.3c14.7,14.6,38.6,14.6,53.2,0l32.2-32.1c14.6-14.6,41.5-18.6,59.7-8.7l63.3,25.9c19.8,6.2,36,28.1,36,48.9v45.1c0,20.7,16.9,37.7,37.7,37.7h75.4c20.6,0,37.7-17,37.7-37.7v-45.1c0-20.8,16.3-42.7,36-48.9l63.2-25.9c18.3-9.9,45.3-5.9,59.9,8.7l31.9,32.1c14.7,14.6,38.7,14.6,53.4,0l53.3-53.3c14.7-14.7,14.7-38.7,0-53.4L841,734.5c-14.6-14.6-18.6-41.6-8.8-59.9l25.9-63.1c6.2-19.7,28.2-35.9,48.9-35.9h45.2c20.7,0,37.7-17,37.7-37.7v-75.4C990,441.6,973,424.6,952.3,424.6 M688.6,499.9c0,104.1-84.4,188.5-188.5,188.5c-104.1,0-188.5-84.4-188.5-188.5c0-104.1,84.4-188.5,188.5-188.5C604.2,311.5,688.6,395.8,688.6,499.9"/></g>
</svg>