<?xml version="1.0" encoding="UTF-8" standalone="no"?>
<svg
   xmlns:dc="http://purl.org/dc/elements/1.1/"
   xmlns:cc="http://creativecommons.org/ns#"
   xmlns:rdf="http://www.w3.org/1999/02/22-rdf-syntax-ns#"
   xmlns:svg="http://www.w3.org/2000/svg"
   xmlns="http://www.w3.org/2000/svg"
   xmlns:sodipodi="http://sodipodi.sourceforge.net/DTD/sodipodi-0.dtd"
   xmlns:inkscape="http://www.inkscape.org/namespaces/inkscape"
   aria-hidden="true"
   focusable="false"
   data-prefix="fas"
   data-icon="download"
   class="svg-inline--fa fa-download fa-w-16"
   role="img"
   viewBox="0 0 512 512"
   version="1.1"
   id="svg4"
   sodipodi:docname="save.svg"
   inkscape:version="0.92.3 (2405546, 2018-03-11)">
  <metadata
     id="metadata10">
    <rdf:RDF>
      <cc:Work
         rdf:about="">
        <dc:format>image/svg+xml</dc:format>
        <dc:type
           rdf:resource="http://purl.org/dc/dcmitype/StillImage" />
        <dc:title></dc:title>
      </cc:Work>
    </rdf:RDF>
  </metadata>
  <defs
     id="defs8" />
  <sodipodi:namedview
     pagecolor="#ffffff"
     bordercolor="#666666"
     borderopacity="1"
     objecttolerance="10"
     gridtolerance="10"
     guidetolerance="10"
     inkscape:pageopacity="0"
     inkscape:pageshadow="2"
     inkscape:window-width="1029"
     inkscape:window-height="746"
     id="namedview6"
     showgrid="false"
     inkscape:zoom="0.921875"
     inkscape:cx="256"
     inkscape:cy="256"
     inkscape:window-x="0"
     inkscape:window-y="27"
     inkscape:window-maximized="0"
     inkscape:current-layer="svg4" />
  <path
     style="fill:#29bae2;fill-opacity:1"
     d="m 216,0 c 28.27583,0.31072124 56.61419,-0.63016031 84.8498,0.48574219 C 320.68393,3.990575 320.84687,25.592963 320,41.377857 320,91.585238 320,141.79262 320,192 c 31.28434,0.59186 62.79869,-1.20975 93.9332,0.94844 21.58489,7.6672 13.65171,32.80486 -1.34617,42.37059 -48.72292,48.38363 -96.7404,97.5479 -145.90578,145.44191 -17.23529,10.85952 -29.59703,-8.60703 -40.67063,-18.83956 C 180.06219,315.77247 133.63469,270.06792 87.986377,223.64062 74.77973,204.65355 97.393103,187.15726 115.78524,192 141.19016,192 166.59508,192 192,192 192.32181,134.39139 191.355,76.7184 192.48574,19.150195 194.52058,8.2277809 204.89019,-0.21490648 216,0 Z m 296,376 c -0.31604,38.94224 0.63725,77.94788 -0.48574,116.8498 C 508.00943,512.68393 486.40704,512.84687 470.62214,512 321.7481,512 172.87405,512 24,512 2.1467361,512.39501 -1.8389921,489.03303 0,472.0703 0.31344611,438.43783 -0.63377271,404.74239 0.48574219,371.1502 3.990575,351.31607 25.592963,351.15313 41.377857,352 c 43.107381,0 86.214763,0 129.322143,0 19.13553,18.40216 36.82834,38.44314 57.06602,55.59531 23.10464,16.30712 55.1503,7.55328 71.70198,-13.76331 13.944,-13.944 27.888,-27.888 41.832,-41.832 50.50873,0.31941 101.08144,-0.64177 151.5498,0.48574 C 503.77222,354.52058 512.21491,364.89019 512,376 Z"
     id="path2"
     inkscape:connector-curvature="0"
     inkscape:export-filename="/home/hugo/qx/examples/compositor/src/style2/icons-ldpi/SaveProject.png"
     inkscape:export-xdpi="3.934958"
     inkscape:export-ydpi="3.934958" />
</svg>
