<?xml version="1.0" encoding="UTF-8" standalone="no"?>
<svg
   xmlns:d="https://loading.io/stock/"
   xmlns:dc="http://purl.org/dc/elements/1.1/"
   xmlns:cc="http://creativecommons.org/ns#"
   xmlns:rdf="http://www.w3.org/1999/02/22-rdf-syntax-ns#"
   xmlns:svg="http://www.w3.org/2000/svg"
   xmlns="http://www.w3.org/2000/svg"
   xmlns:sodipodi="http://sodipodi.sourceforge.net/DTD/sodipodi-0.dtd"
   xmlns:inkscape="http://www.inkscape.org/namespaces/inkscape"
   viewBox="0 0 78.723402 78.723401"
   width="37"
   height="37"
   version="1.1"
   id="svg14"
   sodipodi:docname="SaveWorkspace.svg"
   inkscape:version="0.92.3 (2405546, 2018-03-11)"
   inkscape:export-filename="/home/hugo/qx/examples/compositor/src/style2/icons-ldpi/SaveProject.png"
   inkscape:export-xdpi="54.486488"
   inkscape:export-ydpi="54.486488">
  <metadata
     id="metadata20">
    <rdf:RDF>
      <cc:Work
         rdf:about="">
        <dc:format>image/svg+xml</dc:format>
        <dc:type
           rdf:resource="http://purl.org/dc/dcmitype/StillImage" />
        <dc:title />
      </cc:Work>
    </rdf:RDF>
  </metadata>
  <defs
     id="defs18" />
  <sodipodi:namedview
     pagecolor="#ffffff"
     bordercolor="#666666"
     borderopacity="1"
     objecttolerance="10"
     gridtolerance="10"
     guidetolerance="10"
     inkscape:pageopacity="0"
     inkscape:pageshadow="2"
     inkscape:window-width="1287"
     inkscape:window-height="710"
     id="namedview16"
     showgrid="false"
     inkscape:zoom="10.042553"
     inkscape:cx="9.7879472"
     inkscape:cy="18.096026"
     inkscape:window-x="0"
     inkscape:window-y="27"
     inkscape:window-maximized="0"
     inkscape:current-layer="g12" />
  <g
     class="ldl-scale"
     id="g12"
     transform="translate(0,-21.276598)">
    <path
       d="m 37.929423,80.593219 -0.02264,18.5 h 30.328 c 5.333,0 9.672,-4.339 9.672,-9.672 v -27.328 c 0,0 -40.000004,0 -40,0 z"
       style="fill:#29abe2;fill-opacity:1"
       id="path2"
       inkscape:connector-curvature="0"
       sodipodi:nodetypes="ccssccc" />
    <path
       d="m 77.906779,59.093219 v -27.328 c 0,-5.332999 -4.339,-9.671999 -9.672,-9.671999 h -27.328 v 12.594999 h -1.5 c -3.256,0 -5.904,2.649 -5.904,5.905 0,3.256 2.648,5.905 5.904,5.905 h 1.5 v 12.595 z"
       style="fill:#29abe2;fill-opacity:1"
       id="path4"
       inkscape:connector-curvature="0"
       sodipodi:nodetypes="cssccsssccc" />
    <path
       d="m 30.502779,40.593219 c 0,-4.399 3.206,-8.063 7.404,-8.778 V 22.09322 h -27.328 c -5.3329993,0 -9.6719993,4.339 -9.6719993,9.671999 v 27.328 H 13.502779 v 1.5 c 0,3.256 2.648,5.905 5.904,5.905 3.256,0 5.904,-2.649 5.904,-5.905 v -1.5 h 12.596 v -9.722 c -4.198,-0.715 -7.404,-4.379 -7.404,-8.778 z"
       style="fill:#8cc63f;fill-opacity:1"
       id="path6"
       inkscape:connector-curvature="0" />
    <path
       d="m 19.406779,69.498219 c -4.398,0 -8.063,-3.206 -8.778,-7.405 H 0.9067797 v 27.328 c 0,5.333 4.339,9.672 9.6719993,9.672 h 27.328 c 0,0 0,-18.134696 0,-37 h -9.722 c -0.716,4.199 -4.38,7.405 -8.778,7.405 z"
       style="fill:#29abe2;fill-opacity:1"
       id="path8"
       inkscape:connector-curvature="0"
       sodipodi:nodetypes="sccsscccs" />
    <metadata
       id="metadata10">
      <d:name
         style="animation-play-state:paused">puzzle</d:name>
      <d:tags
         style="animation-play-state:paused">puzzle,maze,merge,combine,solve,step,flow,infographics</d:tags>
      <d:license
         style="animation-play-state:paused">by</d:license>
      <d:slug
         style="animation-play-state:paused">acogix</d:slug>
    </metadata>
    <path
       d="M 46.991611,50.700796 V 70.629304 H 35.664889 c -2.298933,0 -3.448386,3.150465 -1.821057,4.996782 l 19.657082,22.302352 c 0.968652,1.098996 2.557227,1.098996 3.525879,0 L 76.683888,75.626086 c 1.627329,-1.846317 0.477863,-4.996782 -1.821056,-4.996782 H 63.523196 V 50.700796 c 0,-1.948893 -1.381948,-3.516797 -3.099671,-3.516797 H 50.091282 c -1.717737,0 -3.099671,1.567904 -3.099671,3.516797 z"
       id="path2-6"
       inkscape:connector-curvature="0"
       sodipodi:nodetypes="scsssssscssss"
       style="fill:#0071bc;fill-opacity:1;stroke-width:0.13756889" />
  </g>
  <!-- generated by https://loading.io/ -->
</svg>
