<?xml version="1.0" encoding="UTF-8" standalone="no"?>
<!-- Svg Vector Icons : http://www.onlinewebfonts.com/icon -->

<svg
   xmlns:dc="http://purl.org/dc/elements/1.1/"
   xmlns:cc="http://creativecommons.org/ns#"
   xmlns:rdf="http://www.w3.org/1999/02/22-rdf-syntax-ns#"
   xmlns:svg="http://www.w3.org/2000/svg"
   xmlns="http://www.w3.org/2000/svg"
   xmlns:sodipodi="http://sodipodi.sourceforge.net/DTD/sodipodi-0.dtd"
   xmlns:inkscape="http://www.inkscape.org/namespaces/inkscape"
   version="1.1"
   x="0px"
   y="0px"
   viewBox="0 0 1000 1000"
   enable-background="new 0 0 1000 1000"
   xml:space="preserve"
   id="svg40"
   sodipodi:docname="Signin.svg"
   inkscape:version="0.92.4 (5da689c313, 2019-01-14)"
   inkscape:export-filename="/home/hugo/qx/examples/compositor/src/iconatlas/icons-ldpi/Signin.png"
   inkscape:export-xdpi="2.057143"
   inkscape:export-ydpi="2.057143"><defs
   id="defs44" /><sodipodi:namedview
   pagecolor="#ffffff"
   bordercolor="#666666"
   borderopacity="1"
   objecttolerance="10"
   gridtolerance="10"
   guidetolerance="10"
   inkscape:pageopacity="0"
   inkscape:pageshadow="2"
   inkscape:window-width="1447"
   inkscape:window-height="785"
   id="namedview42"
   showgrid="false"
   inkscape:pagecheckerboard="true"
   inkscape:zoom="0.472"
   inkscape:cx="114.40678"
   inkscape:cy="500"
   inkscape:window-x="0"
   inkscape:window-y="202"
   inkscape:window-maximized="0"
   inkscape:current-layer="g6" />
<metadata
   id="metadata2"> Svg Vector Icons : http://www.onlinewebfonts.com/icon <rdf:RDF><cc:Work
     rdf:about=""><dc:format>image/svg+xml</dc:format><dc:type
       rdf:resource="http://purl.org/dc/dcmitype/StillImage" /><dc:title /></cc:Work></rdf:RDF></metadata>
<g
   id="g38"><g
     id="g6"><path
       d="M 500,10 C 229.4,10 10,229.4 10,500 10,770.6 229.4,990 500,990 770.6,990 990,770.6 990,500 990,229.4 770.6,10 500,10 Z"
       id="path857"
       inkscape:connector-curvature="0"
       style="fill:#0071bc;fill-opacity:1"
       inkscape:export-filename="/home/hugo/qx/examples/compositor/src/iconatlas/icons-ldpi/Signin.png"
       inkscape:export-xdpi="2.057143"
       inkscape:export-ydpi="2.057143" /><path
       d="m 500,156.5 c 89.5,0 162.1,72.6 162.1,162.1 0,89.5 -72.6,162.1 -162.1,162.1 -89.5,0 -162.1,-72.6 -162.1,-162.1 0,-89.5 72.6,-162.1 162.1,-162.1 z"
       id="path855"
       inkscape:connector-curvature="0"
       style="fill:#29abe2;fill-opacity:1" /><path
       d="m 499.9,861.9 c -89.3,0 -171.1,-32.5 -234.2,-86.3 -15.4,-13.1 -24.2,-32.3 -24.2,-52.5 0,-90.8 73.5,-163.4 164.3,-163.4 h 188.6 c 90.8,0 164,72.6 164,163.4 0,20.2 -8.8,39.4 -24.2,52.5 -63.2,53.7 -145,86.3 -234.3,86.3 z"
       id="path4"
       inkscape:connector-curvature="0"
       style="fill:#29abe2;fill-opacity:1" /></g><g
     id="g8" /><g
     id="g10" /><g
     id="g12" /><g
     id="g14" /><g
     id="g16" /><g
     id="g18" /><g
     id="g20" /><g
     id="g22" /><g
     id="g24" /><g
     id="g26" /><g
     id="g28" /><g
     id="g30" /><g
     id="g32" /><g
     id="g34" /><g
     id="g36" /></g>
</svg>