<?xml version="1.0" encoding="UTF-8" standalone="no"?>
<svg
   xmlns:d="https://loading.io/stock/"
   xmlns:dc="http://purl.org/dc/elements/1.1/"
   xmlns:cc="http://creativecommons.org/ns#"
   xmlns:rdf="http://www.w3.org/1999/02/22-rdf-syntax-ns#"
   xmlns:svg="http://www.w3.org/2000/svg"
   xmlns="http://www.w3.org/2000/svg"
   xmlns:sodipodi="http://sodipodi.sourceforge.net/DTD/sodipodi-0.dtd"
   xmlns:inkscape="http://www.inkscape.org/namespaces/inkscape"
   viewBox="0 0 78.723402 78.723401"
   width="37"
   height="37"
   version="1.1"
   id="svg14"
   sodipodi:docname="puzzle-1.1s-47px.svg"
   inkscape:version="0.92.4 (5da689c313, 2019-01-14)"
   inkscape:export-filename="/home/hugo/qx/examples/compositor/src/style2/icons-ldpi/store.png"
   inkscape:export-xdpi="54.486488"
   inkscape:export-ydpi="54.486488">
  <metadata
     id="metadata20">
    <rdf:RDF>
      <cc:Work
         rdf:about="">
        <dc:format>image/svg+xml</dc:format>
        <dc:type
           rdf:resource="http://purl.org/dc/dcmitype/StillImage" />
        <dc:title></dc:title>
      </cc:Work>
    </rdf:RDF>
  </metadata>
  <defs
     id="defs18" />
  <sodipodi:namedview
     pagecolor="#ffffff"
     bordercolor="#666666"
     borderopacity="1"
     objecttolerance="10"
     gridtolerance="10"
     guidetolerance="10"
     inkscape:pageopacity="0"
     inkscape:pageshadow="2"
     inkscape:window-width="1496"
     inkscape:window-height="853"
     id="namedview16"
     showgrid="false"
     inkscape:zoom="10.042553"
     inkscape:cx="23.5"
     inkscape:cy="23.5"
     inkscape:window-x="0"
     inkscape:window-y="27"
     inkscape:window-maximized="0"
     inkscape:current-layer="g12" />
  <g
     class="ldl-scale"
     id="g12"
     transform="translate(0,-21.276598)">
    <path
       d="m 48.310779,80.593219 c 0,4.399 -3.206,8.063 -7.404,8.778 v 9.722 h 27.328 c 5.333,0 9.672,-4.339 9.672,-9.672 v -27.328 h -12.596 v -1.5 c 0,-3.256 -2.648,-5.905 -5.904,-5.905 -3.256,0 -5.904,2.649 -5.904,5.905 v 1.5 h -12.596 v 9.722 c 4.198,0.715 7.404,4.379 7.404,8.778 z"
       style="fill:#0071bc;fill-opacity:1"
       id="path2"
       inkscape:connector-curvature="0" />
    <path
       d="m 59.406779,51.688219 c 4.398,0 8.063,3.206 8.778,7.405 h 9.722 v -27.328 c 0,-5.332999 -4.339,-9.671999 -9.672,-9.671999 h -27.328 v 12.594999 h -1.5 c -3.256,0 -5.904,2.649 -5.904,5.905 0,3.256 2.648,5.905 5.904,5.905 h 1.5 v 12.595 h 9.722 c 0.716,-4.199 4.38,-7.405 8.778,-7.405 z"
       style="fill:#6d9435;fill-opacity:1"
       id="path4"
       inkscape:connector-curvature="0" />
    <path
       d="m 30.502779,40.593219 c 0,-4.399 3.206,-8.063 7.404,-8.778 V 22.09322 h -27.328 c -5.3329993,0 -9.6719993,4.339 -9.6719993,9.671999 v 27.328 H 13.502779 v 1.5 c 0,3.256 2.648,5.905 5.904,5.905 3.256,0 5.904,-2.649 5.904,-5.905 v -1.5 h 12.596 v -9.722 c -4.198,-0.715 -7.404,-4.379 -7.404,-8.778 z"
       style="fill:#29abe2;fill-opacity:1"
       id="path6"
       inkscape:connector-curvature="0" />
    <path
       d="m 19.406779,69.498219 c -4.398,0 -8.063,-3.206 -8.778,-7.405 H 0.9067797 v 27.328 c 0,5.333 4.339,9.672 9.6719993,9.672 h 27.328 v -12.595 h 1.5 c 3.256,0 5.904,-2.649 5.904,-5.905 0,-3.256 -2.648,-5.905 -5.904,-5.905 h -1.5 v -12.595 h -9.722 c -0.716,4.199 -4.38,7.405 -8.778,7.405 z"
       style="fill:#c1272d;fill-opacity:1"
       id="path8"
       inkscape:connector-curvature="0" />
    <metadata
       id="metadata10">
      <d:name
         style="animation-play-state:paused">puzzle</d:name>
      <d:tags
         style="animation-play-state:paused">puzzle,maze,merge,combine,solve,step,flow,infographics</d:tags>
      <d:license
         style="animation-play-state:paused">by</d:license>
      <d:slug
         style="animation-play-state:paused">acogix</d:slug>
    </metadata>
  </g>
  <!-- generated by https://loading.io/ -->
</svg>
