<?xml version="1.0" encoding="UTF-8" standalone="no"?>
<!-- Generator: Adobe Illustrator 19.0.0, SVG Export Plug-In . SVG Version: 6.00 Build 0)  -->

<svg
   xmlns:dc="http://purl.org/dc/elements/1.1/"
   xmlns:cc="http://creativecommons.org/ns#"
   xmlns:rdf="http://www.w3.org/1999/02/22-rdf-syntax-ns#"
   xmlns:svg="http://www.w3.org/2000/svg"
   xmlns="http://www.w3.org/2000/svg"
   xmlns:sodipodi="http://sodipodi.sourceforge.net/DTD/sodipodi-0.dtd"
   xmlns:inkscape="http://www.inkscape.org/namespaces/inkscape"
   version="1.1"
   id="Layer_1"
   x="0px"
   y="0px"
   viewBox="0 0 288 288"
   xml:space="preserve"
   sodipodi:docname="Store.svg"
   width="288"
   height="288"
   inkscape:version="0.92.3 (2405546, 2018-03-11)"><metadata
   id="metadata49"><rdf:RDF><cc:Work
       rdf:about=""><dc:format>image/svg+xml</dc:format><dc:type
         rdf:resource="http://purl.org/dc/dcmitype/StillImage" /><dc:title></dc:title></cc:Work></rdf:RDF></metadata><defs
   id="defs47" /><sodipodi:namedview
   pagecolor="#ffffff"
   bordercolor="#666666"
   borderopacity="1"
   objecttolerance="10"
   gridtolerance="10"
   guidetolerance="10"
   inkscape:pageopacity="0"
   inkscape:pageshadow="2"
   inkscape:window-width="1440"
   inkscape:window-height="800"
   id="namedview45"
   showgrid="false"
   inkscape:zoom="1.3037281"
   inkscape:cx="122.15308"
   inkscape:cy="194.63751"
   inkscape:window-x="0"
   inkscape:window-y="27"
   inkscape:window-maximized="1"
   inkscape:current-layer="g8" />
<g
   id="g12"
   transform="translate(0,-224)">
	<g
   id="g10"
   transform="translate(2.3010933,2.3010933)">
		<g
   id="g8">
			
			
			<path
   d="m 247.92206,371.50757 c -1.02571,0.0778 -2.0624,0.11774 -3.08512,0.11774 -10.30601,0 -20.07222,-3.93313 -27.50065,-11.07103 -0.0539,-0.0509 -0.10476,-0.10078 -0.15864,-0.14967 v 80.84568 h -80.84664 c 0.0499,0.0539 0.0988,0.10476 0.14867,0.15764 7.82055,8.13765 11.81364,19.28651 10.95356,30.58702 -1.44577,18.98319 -16.20385,34.2757 -35.09271,36.361 -1.49067,0.16363 -3.0013,0.24744 -4.48998,0.24744 -21.890174,0 -39.698445,-17.80784 -39.698445,-39.69847 0,-10.39057 3.985109,-20.20843 11.224958,-27.65663 H -1.473566 v -99.11048 h 7.5870737 c 6.2340923,0 12.2097613,2.48639 16.3944253,6.81962 5.110599,5.29107 12.185815,7.98799 19.577325,7.41827 11.522294,-0.87602 21.16578,-10.17306 22.430958,-21.62423 0.785248,-7.10498 -1.377926,-13.91662 -6.091411,-19.17975 -4.650624,-5.19229 -11.311764,-8.17057 -18.276227,-8.17057 -6.616239,0 -12.817405,2.59615 -17.463041,7.31151 -3.178908,3.22473 -7.161024,5.45071 -11.516308,6.43449 -0.755315,0.17161 -1.5305851,0.25842 -2.3018649,0.25842 -5.7022787,0 -10.3409301,-4.62856 -10.3409301,-10.31973 v -88.48145 h 88.79291 c 5.690305,0 10.319977,4.62856 10.319977,10.31873 0,6.23394 -2.486453,12.21046 -6.820784,16.39502 -5.273235,5.09152 -7.976205,12.22842 -7.41845,19.57785 0.877044,11.52201 10.174302,21.16427 21.626763,22.42942 0.9409,0.10476 1.89078,0.15664 2.82469,0.15664 13.52284,0 24.52529,-11.00219 24.52529,-24.52469 0,-6.59113 -2.57925,-12.77619 -7.26479,-17.41672 -4.54486,-4.50384 -7.04928,-10.37261 -7.04928,-16.52773 0,-5.74005 4.66959,-10.40952 10.41078,-10.40952 h 88.70211 v 80.84867 c 7.44838,-7.23868 17.26548,-11.22469 27.6573,-11.22469 11.27385,0 22.05579,4.81913 29.58001,13.22118 7.52022,8.39607 11.1172,19.68361 9.87098,30.96717 -2.08535,18.89039 -17.37823,33.64711 -36.36188,35.09185 z m 15.19011,-55.93385 c -4.65063,-5.19329 -11.31276,-8.17157 -18.27623,-8.17157 -6.44262,0 -12.52905,2.4804 -17.13577,6.98425 -4.83222,4.72634 -11.26187,7.32747 -18.1076,7.32747 h -7.58708 v -83.9367 h -67.07735 c 0.26142,0.34123 0.54977,0.66949 0.86607,0.98478 7.58308,7.51106 11.75876,17.52448 11.75876,28.19541 0,21.89063 -17.80827,39.69847 -39.69943,39.69847 -1.48768,0 -2.99831,-0.0838 -4.48998,-0.24744 -18.88887,-2.08829 -33.646946,-17.37981 -35.091723,-36.36 -0.902985,-11.87123 3.47425,-23.40522 12.009209,-31.64663 0.20155,-0.19456 0.390129,-0.40309 0.567733,-0.62359 H 13.703575 v 64.54543 c 7.28375,-6.52728 16.581009,-10.09423 26.447997,-10.09423 11.272851,0 22.054797,4.81913 29.580009,13.22118 7.520223,8.39606 11.117198,19.68361 9.869981,30.96816 -2.087344,18.8874 -17.380226,33.64412 -36.362878,35.08886 -1.024714,0.0778 -2.063396,0.11774 -3.085117,0.11774 -9.88395,0 -19.169235,-3.56297 -26.448994,-10.09324 v 64.54344 l 83.938739,0.005 v 7.58689 c 0,6.84057 -2.602195,13.26907 -7.327653,18.10317 -4.504949,4.60761 -6.985416,10.69189 -6.985416,17.13536 0,13.5225 11.001457,24.52469 24.524297,24.52469 0.93391,0 1.88379,-0.0529 2.8247,-0.15665 11.45245,-1.26415 20.7497,-10.9074 21.62675,-22.43041 0.53979,-7.10099 -1.86285,-13.81984 -6.76491,-18.92133 -4.82025,-5.01469 -7.47433,-11.49907 -7.47433,-18.25882 v -7.58689 h 83.93874 v -83.9367 h 7.58708 c 6.75992,0 13.24345,2.65401 18.26026,7.47414 5.04974,4.85206 11.87451,7.29754 18.92079,6.76474 11.52229,-0.87602 21.16578,-10.17305 22.43096,-21.62622 0.78425,-7.10598 -1.37893,-13.91562 -6.09241,-19.17875 z"
   id="path6"
   inkscape:connector-curvature="0"
   style="fill:#0071bc;fill-opacity:1;stroke-width:0.99776196"
   inkscape:export-filename="/home/hugo/qx/examples/compositor/src/style2/icons-ldpi/Store.png"
   inkscape:export-xdpi="7.0489511"
   inkscape:export-ydpi="7.0489511" />
		</g>
	</g>
</g>
<g
   id="g14"
   transform="translate(0,-224)">
</g>
<g
   id="g16"
   transform="translate(0,-224)">
</g>
<g
   id="g18"
   transform="translate(0,-224)">
</g>
<g
   id="g20"
   transform="translate(0,-224)">
</g>
<g
   id="g22"
   transform="translate(0,-224)">
</g>
<g
   id="g24"
   transform="translate(0,-224)">
</g>
<g
   id="g26"
   transform="translate(0,-224)">
</g>
<g
   id="g28"
   transform="translate(0,-224)">
</g>
<g
   id="g30"
   transform="translate(0,-224)">
</g>
<g
   id="g32"
   transform="translate(0,-224)">
</g>
<g
   id="g34"
   transform="translate(0,-224)">
</g>
<g
   id="g36"
   transform="translate(0,-224)">
</g>
<g
   id="g38"
   transform="translate(0,-224)">
</g>
<g
   id="g40"
   transform="translate(0,-224)">
</g>
<g
   id="g42"
   transform="translate(0,-224)">
</g>
</svg>