<?xml version="1.0" encoding="UTF-8" standalone="no"?>
<!-- Svg Vector Icons : http://www.onlinewebfonts.com/icon -->

<svg
   xmlns:dc="http://purl.org/dc/elements/1.1/"
   xmlns:cc="http://creativecommons.org/ns#"
   xmlns:rdf="http://www.w3.org/1999/02/22-rdf-syntax-ns#"
   xmlns:svg="http://www.w3.org/2000/svg"
   xmlns="http://www.w3.org/2000/svg"
   xmlns:sodipodi="http://sodipodi.sourceforge.net/DTD/sodipodi-0.dtd"
   xmlns:inkscape="http://www.inkscape.org/namespaces/inkscape"
   version="1.1"
   x="0px"
   y="0px"
   viewBox="0 0 1000 1000"
   enable-background="new 0 0 1000 1000"
   xml:space="preserve"
   id="svg62"
   sodipodi:docname="TransformGrid.svg"
   inkscape:version="0.92.4 (5da689c313, 2019-01-14)"
   inkscape:export-filename="/home/hugo/Music/TransformGrid.png"
   inkscape:export-xdpi="2"
   inkscape:export-ydpi="2"><defs
   id="defs66" /><sodipodi:namedview
   pagecolor="#ffffff"
   bordercolor="#666666"
   borderopacity="1"
   objecttolerance="10"
   gridtolerance="10"
   guidetolerance="10"
   inkscape:pageopacity="0"
   inkscape:pageshadow="2"
   inkscape:window-width="1401"
   inkscape:window-height="712"
   id="namedview64"
   showgrid="false"
   inkscape:zoom="0.472"
   inkscape:cx="429.02542"
   inkscape:cy="460.22276"
   inkscape:window-x="18"
   inkscape:window-y="67"
   inkscape:window-maximized="0"
   inkscape:current-layer="g26"
   inkscape:pagecheckerboard="true" />
<metadata
   id="metadata2"> Svg Vector Icons : http://www.onlinewebfonts.com/icon <rdf:RDF><cc:Work
     rdf:about=""><dc:format>image/svg+xml</dc:format><dc:type
       rdf:resource="http://purl.org/dc/dcmitype/StillImage" /><dc:title /></cc:Work></rdf:RDF></metadata>
<g
   id="g60"
   style="fill:#a5a5a5;fill-opacity:1"
   inkscape:export-filename="/home/hugo/Music/TransformGrid.png"
   inkscape:export-xdpi="2.057143"
   inkscape:export-ydpi="2.057143"><g
     id="g28"
     style="fill:#ffffff;fill-opacity:1"
     inkscape:export-filename="/home/hugo/Music/TransformGrid.png"
     inkscape:export-xdpi="2.057143"
     inkscape:export-ydpi="2.057143"><g
       id="g26"
       style="fill:#ffffff;fill-opacity:1"><g
         id="g24"
         style="fill:#ffffff;fill-opacity:1"
         transform="translate(-0.3177966,-0.317796)"><g
           id="g22"
           style="fill:#ffffff;fill-opacity:1"><path
             d="M 192.98729,10 H 70.995763 C 37.360956,10 10,37.360956 10,70.995763 V 192.98729 c 0,33.6348 27.360956,60.99576 60.995763,60.99576 H 192.98729 c 33.6348,0 60.99576,-27.36096 60.99576,-60.99576 V 70.995763 C 253.98305,37.360956 226.62209,10 192.98729,10 Z"
             id="path4"
             inkscape:connector-curvature="0"
             style="fill:#ffffff;fill-opacity:1;stroke-width:0.87136805" /></g></g><path
         d="M 564.17373,9.6822038 H 442.1822 c -33.63481,0 -60.99576,27.3609502 -60.99576,60.9957602 V 192.66949 c 0,33.6348 27.36095,60.99576 60.99576,60.99576 h 121.99153 c 33.6348,0 60.99576,-27.36096 60.99576,-60.99576 V 70.677964 c 0,-33.63481 -27.36096,-60.9957602 -60.99576,-60.9957602 z"
         id="path4-3"
         inkscape:connector-curvature="0"
         style="fill:#ffffff;fill-opacity:1;stroke-width:0.87136805" /><path
         d="M 564.17373,372.71187 H 442.1822 c -33.63481,0 -60.99576,27.36095 -60.99576,60.99576 v 121.99153 c 0,33.6348 27.36095,60.99576 60.99576,60.99576 h 121.99153 c 33.6348,0 60.99576,-27.36096 60.99576,-60.99576 V 433.70762 c 0,-33.63481 -27.36096,-60.99576 -60.99576,-60.99575 z"
         id="path4-3-6"
         inkscape:connector-curvature="0"
         style="fill:#ffffff;fill-opacity:1;stroke-width:0.87136805" /><path
         d="M 564.17373,747.71186 H 442.1822 c -33.63481,0 -60.99576,27.36095 -60.99576,60.99576 v 121.99153 c 0,33.6348 27.36095,60.99576 60.99576,60.99576 h 121.99153 c 33.6348,0 60.99576,-27.36096 60.99576,-60.99576 V 808.70761 c 0,-33.63481 -27.36096,-60.99576 -60.99576,-60.99575 z"
         id="path4-3-7"
         inkscape:connector-curvature="0"
         style="fill:#ffffff;fill-opacity:1;stroke-width:0.87136805" /><path
         d="M 928.58052,9.682203 H 806.58899 c -33.63481,0 -60.99576,27.36095 -60.99576,60.99576 V 192.6695 c 0,33.6348 27.36095,60.99576 60.99576,60.99576 h 121.99153 c 33.63484,0 60.99574,-27.36096 60.99574,-60.99576 V 70.677963 c 0,-33.63481 -27.3609,-60.99576 -60.99574,-60.99576 z"
         id="path4-3-5"
         inkscape:connector-curvature="0"
         style="fill:#ffffff;fill-opacity:1;stroke-width:0.87136805" /><path
         d="M 928.58051,372.71186 H 806.58898 c -33.63481,0 -60.99576,27.36095 -60.99576,60.99576 v 121.99154 c 0,33.6348 27.36095,60.99576 60.99576,60.99576 h 121.99153 c 33.6348,0 60.99576,-27.36096 60.99576,-60.99576 V 433.70762 c 0,-33.63481 -27.36096,-60.99576 -60.99576,-60.99576 z"
         id="path4-3-3"
         inkscape:connector-curvature="0"
         style="fill:#ffffff;fill-opacity:1;stroke-width:0.87136805" /><path
         d="M 928.58051,747.71186 H 806.58898 c -33.63481,0 -60.99576,27.36095 -60.99576,60.99576 v 121.99153 c 0,33.6348 27.36095,60.99575 60.99576,60.99575 h 121.99153 c 33.6348,0 60.99576,-27.36095 60.99576,-60.99575 V 808.70762 c 0,-33.63481 -27.36096,-60.99576 -60.99576,-60.99576 z"
         id="path4-3-56"
         inkscape:connector-curvature="0"
         style="fill:#ffffff;fill-opacity:1;stroke-width:0.87136805" /><path
         d="M 192.66949,747.71186 H 70.677966 c -33.634814,0 -60.9957642,27.36095 -60.9957642,60.99576 v 121.99153 c 0,33.6348 27.3609502,60.99576 60.9957642,60.99576 H 192.66949 c 33.6348,0 60.99576,-27.36096 60.99576,-60.99576 V 808.70762 c 0,-33.63481 -27.36096,-60.99576 -60.99576,-60.99576 z"
         id="path4-3-2"
         inkscape:connector-curvature="0"
         style="fill:#ffffff;fill-opacity:1;stroke-width:0.87136805" /><path
         d="M 192.66949,372.71186 H 70.677962 c -33.634805,0 -60.9957549,27.36095 -60.9957549,60.99576 v 121.99154 c 0,33.6348 27.3609499,60.99576 60.9957549,60.99576 H 192.66949 c 33.6348,0 60.99576,-27.36096 60.99576,-60.99576 V 433.70762 c 0,-33.63481 -27.36096,-60.99576 -60.99576,-60.99576 z"
         id="path4-3-9"
         inkscape:connector-curvature="0"
         style="fill:#ffffff;fill-opacity:1;stroke-width:0.87136805" /></g></g><g
     id="g30"
     style="fill:#a5a5a5;fill-opacity:1" /><g
     id="g32"
     style="fill:#a5a5a5;fill-opacity:1" /><g
     id="g34"
     style="fill:#a5a5a5;fill-opacity:1" /><g
     id="g36"
     style="fill:#a5a5a5;fill-opacity:1" /><g
     id="g38"
     style="fill:#a5a5a5;fill-opacity:1" /><g
     id="g40"
     style="fill:#a5a5a5;fill-opacity:1" /><g
     id="g42"
     style="fill:#a5a5a5;fill-opacity:1" /><g
     id="g44"
     style="fill:#a5a5a5;fill-opacity:1" /><g
     id="g46"
     style="fill:#a5a5a5;fill-opacity:1" /><g
     id="g48"
     style="fill:#a5a5a5;fill-opacity:1" /><g
     id="g50"
     style="fill:#a5a5a5;fill-opacity:1" /><g
     id="g52"
     style="fill:#a5a5a5;fill-opacity:1" /><g
     id="g54"
     style="fill:#a5a5a5;fill-opacity:1" /><g
     id="g56"
     style="fill:#a5a5a5;fill-opacity:1" /><g
     id="g58"
     style="fill:#a5a5a5;fill-opacity:1" /></g>
</svg>