<?xml version="1.0" encoding="utf-8"?>
<!-- Svg Vector Icons : http://www.onlinewebfonts.com/icon -->
<!DOCTYPE svg PUBLIC "-//W3C//DTD SVG 1.1//EN" "http://www.w3.org/Graphics/SVG/1.1/DTD/svg11.dtd">
<svg version="1.1" xmlns="http://www.w3.org/2000/svg" xmlns:xlink="http://www.w3.org/1999/xlink" x="0px" y="0px" viewBox="0 0 1000 1000" enable-background="new 0 0 1000 1000" xml:space="preserve">
<metadata> Svg Vector Icons : http://www.onlinewebfonts.com/icon </metadata>
<g><g><g><g><g><path d="M220,10H80c-38.6,0-70,31.4-70,70v140c0,38.6,31.4,70,70,70h140c38.6,0,70-31.4,70-70V80C290,41.4,258.6,10,220,10z"/><path d="M570,10H430c-38.6,0-70,31.4-70,70v140c0,38.6,31.4,70,70,70h140c38.6,0,70-31.4,70-70V80C640,41.4,608.6,10,570,10z"/><path d="M920,10H780c-38.6,0-70,31.4-70,70v140c0,38.6,31.4,70,70,70h140c38.6,0,70-31.4,70-70V80C990,41.4,958.6,10,920,10z"/><path d="M220,360H80c-38.6,0-70,31.4-70,70v140c0,38.6,31.4,70,70,70h140c38.6,0,70-31.4,70-70V430C290,391.4,258.6,360,220,360z"/><path d="M570,360H430c-38.6,0-70,31.4-70,70v140c0,38.6,31.4,70,70,70h140c38.6,0,70-31.4,70-70V430C640,391.4,608.6,360,570,360z"/><path d="M920,360H780c-38.6,0-70,31.4-70,70v140c0,38.6,31.4,70,70,70h140c38.6,0,70-31.4,70-70V430C990,391.4,958.6,360,920,360z"/><path d="M220,710H80c-38.6,0-70,31.4-70,70v140c0,38.6,31.4,70,70,70h140c38.6,0,70-31.4,70-70V780C290,741.4,258.6,710,220,710z"/><path d="M570,710H430c-38.6,0-70,31.4-70,70v140c0,38.6,31.4,70,70,70h140c38.6,0,70-31.4,70-70V780C640,741.4,608.6,710,570,710z"/><path d="M920,710H780c-38.6,0-70,31.4-70,70v140c0,38.6,31.4,70,70,70h140c38.6,0,70-31.4,70-70V780C990,741.4,958.6,710,920,710z"/></g></g></g></g><g></g><g></g><g></g><g></g><g></g><g></g><g></g><g></g><g></g><g></g><g></g><g></g><g></g><g></g><g></g></g>
</svg>