<?xml version="1.0" encoding="UTF-8" standalone="no"?>
<svg
   xmlns:dc="http://purl.org/dc/elements/1.1/"
   xmlns:cc="http://creativecommons.org/ns#"
   xmlns:rdf="http://www.w3.org/1999/02/22-rdf-syntax-ns#"
   xmlns:svg="http://www.w3.org/2000/svg"
   xmlns="http://www.w3.org/2000/svg"
   xmlns:sodipodi="http://sodipodi.sourceforge.net/DTD/sodipodi-0.dtd"
   xmlns:inkscape="http://www.inkscape.org/namespaces/inkscape"
   class="icon"
   style="overflow:hidden;fill:currentColor;enable-background:new"
   viewBox="0 0 900 740"
   version="1.1"
   id="svg4"
   sodipodi:docname="FolderThumbnail.svg"
   inkscape:version="0.92.4 (5da689c313, 2019-01-14)"
   width="900"
   height="740"
   inkscape:export-filename="/home/hugo/qx/examples/compositor/src/qxfiledialog/style/icons-ldpi/FolderThumbnail.png"
   inkscape:export-xdpi="6.8266668"
   inkscape:export-ydpi="6.8266668">
  <metadata
     id="metadata10">
    <rdf:RDF>
      <cc:Work
         rdf:about="">
        <dc:format>image/svg+xml</dc:format>
        <dc:type
           rdf:resource="http://purl.org/dc/dcmitype/StillImage" />
        <dc:title></dc:title>
      </cc:Work>
    </rdf:RDF>
  </metadata>
  <defs
     id="defs8" />
  <sodipodi:namedview
     pagecolor="#ffffff"
     bordercolor="#666666"
     borderopacity="1"
     objecttolerance="10"
     gridtolerance="10"
     guidetolerance="10"
     inkscape:pageopacity="0"
     inkscape:pageshadow="2"
     inkscape:window-width="1128"
     inkscape:window-height="706"
     id="namedview6"
     showgrid="false"
     inkscape:zoom="0.4609375"
     inkscape:cx="466.44068"
     inkscape:cy="494.64407"
     inkscape:window-x="504"
     inkscape:window-y="201"
     inkscape:window-maximized="0"
     inkscape:current-layer="svg4" />
  <path
     d="M 54.855608,204.10305 H 847.04094 v -34.77297 c 0,-9.12073 -3.99601,-18.25066 -10.25149,-23.94434 v 0 c -6.27286,-6.27389 -14.80417,-10.26888 -24.49385,-10.26888 v 0 H 450.66737 v 0 c -58.65898,0 -84.27336,-26.7922 -107.06955,-49.597599 -15.38438,-16.53254 -29.60936,-30.78617 -53.52505,-30.78617 v 0 H 89.019708 v 0 c -9.67025,0 -18.22099,3.42603 -24.47544,9.68969 -6.25342,6.27389 -9.68969,15.39359 -9.68969,24.52353 V 204.10305 Z m 781.933842,472.6242 c 6.25445,-6.27287 10.25149,-14.82361 10.25149,-24.5133 V 255.41674 H 54.855608 v 396.79721 c 0,9.68969 3.43626,18.24043 9.68968,24.5133 v 0 c 6.25445,6.27491 14.8052,10.26888 24.47544,10.26888 v 0 H 812.29662 v 0 c 9.68866,0 18.21997,-3.99396 24.49283,-10.26888 z M 450.66737,83.241381 h 361.62925 c 23.91467,0 45.5535,9.69071 60.93584,25.083279 15.38438,15.96358 25.05463,37.63004 25.05463,61.00542 v 482.88489 c 0,23.93411 -9.67025,45.61081 -25.05463,60.99519 -15.38234,15.40281 -37.02117,25.09249 -60.93584,25.09249 v 0 H 89.019708 v 0 c -23.89625,0 -44.97431,-9.6907 -60.917421,-25.09249 v 0 C 12.717902,697.24659 3.0486803,676.14806 3.0486803,652.21498 v 0 -563.268669 0 c 0,-23.37538 9.6692207,-45.04082 25.0536067,-61.0044 v 0 C 44.045398,12.548321 65.683208,2.8586307 89.019708,2.8586307 v 0 H 290.07277 v 0 c 42.69745,0 63.1953,21.0872703 84.27336,42.1858003 19.37937,18.80734 38.71986,38.19695 76.32124,38.19695 z"
     id="path2"
     inkscape:connector-curvature="0"
     style="fill:#418f6a;fill-opacity:1" />
</svg>
