<?xml version="1.0" encoding="UTF-8" standalone="no"?>
<svg
   xmlns:dc="http://purl.org/dc/elements/1.1/"
   xmlns:cc="http://creativecommons.org/ns#"
   xmlns:rdf="http://www.w3.org/1999/02/22-rdf-syntax-ns#"
   xmlns:svg="http://www.w3.org/2000/svg"
   xmlns="http://www.w3.org/2000/svg"
   xmlns:sodipodi="http://sodipodi.sourceforge.net/DTD/sodipodi-0.dtd"
   xmlns:inkscape="http://www.inkscape.org/namespaces/inkscape"
   class="icon"
   style="width: 1em; height: 1em;vertical-align: middle;fill: currentColor;overflow: hidden;"
   viewBox="0 0 1024 1024"
   version="1.1"
   id="svg4"
   sodipodi:docname="folder2.svg"
   enable-background="new"
   inkscape:version="0.92.4 (5da689c313, 2019-01-14)">
  <metadata
     id="metadata10">
    <rdf:RDF>
      <cc:Work
         rdf:about="">
        <dc:format>image/svg+xml</dc:format>
        <dc:type
           rdf:resource="http://purl.org/dc/dcmitype/StillImage" />
      </cc:Work>
    </rdf:RDF>
  </metadata>
  <defs
     id="defs8" />
  <sodipodi:namedview
     pagecolor="#ffffff"
     bordercolor="#666666"
     borderopacity="1"
     objecttolerance="10"
     gridtolerance="10"
     guidetolerance="10"
     inkscape:pageopacity="0"
     inkscape:pageshadow="2"
     inkscape:window-width="1128"
     inkscape:window-height="706"
     id="namedview6"
     showgrid="false"
     inkscape:zoom="0.23046875"
     inkscape:cx="514.16949"
     inkscape:cy="512"
     inkscape:window-x="504"
     inkscape:window-y="201"
     inkscape:window-maximized="0"
     inkscape:current-layer="svg4" />
  <path
     d="M 115.60137,344.91661 H 907.7867 v -34.77297 c 0,-9.12073 -3.99601,-18.25066 -10.25149,-23.94434 v 0 c -6.27286,-6.27389 -14.80417,-10.26888 -24.49385,-10.26888 v 0 H 511.41313 v 0 c -58.65898,0 -84.27336,-26.7922 -107.06955,-49.5976 -15.38438,-16.53254 -29.60936,-30.78617 -53.52505,-30.78617 v 0 H 149.76547 v 0 c -9.67025,0 -18.22099,3.42603 -24.47544,9.68969 -6.25342,6.27389 -9.68969,15.39359 -9.68969,24.52353 v 115.15674 z m 781.93384,472.6242 c 6.25445,-6.27287 10.25149,-14.82361 10.25149,-24.5133 V 396.2303 H 115.60137 v 396.79721 c 0,9.68969 3.43626,18.24043 9.68968,24.5133 v 0 c 6.25445,6.27491 14.8052,10.26888 24.47544,10.26888 v 0 h 723.27589 v 0 c 9.68866,0 18.21997,-3.99396 24.49283,-10.26888 z M 511.41313,224.05494 h 361.62925 c 23.91467,0 45.5535,9.69071 60.93584,25.08328 15.38438,15.96358 25.05463,37.63004 25.05463,61.00542 v 482.88489 c 0,23.93411 -9.67025,45.61081 -25.05463,60.99519 -15.38234,15.40281 -37.02117,25.09249 -60.93584,25.09249 v 0 H 149.76547 v 0 c -23.89625,0 -44.97431,-9.6907 -60.917421,-25.09249 v 0 C 73.463664,838.06015 63.794443,816.96162 63.794443,793.02854 v 0 -563.26867 0 c 0,-23.37538 9.66922,-45.04082 25.053606,-61.0044 v 0 c 15.943111,-15.39359 37.580921,-25.08328 60.917421,-25.08328 v 0 h 201.05306 v 0 c 42.69745,0 63.1953,21.08727 84.27336,42.1858 19.37937,18.80734 38.71986,38.19695 76.32124,38.19695 z"
     id="path2"
     inkscape:connector-curvature="0"
     style="fill:#418f6a;fill-opacity:1" />
</svg>
