<?xml version="1.0" encoding="UTF-8" standalone="no"?>
<svg
   xmlns:dc="http://purl.org/dc/elements/1.1/"
   xmlns:cc="http://creativecommons.org/ns#"
   xmlns:rdf="http://www.w3.org/1999/02/22-rdf-syntax-ns#"
   xmlns:svg="http://www.w3.org/2000/svg"
   xmlns="http://www.w3.org/2000/svg"
   xmlns:sodipodi="http://sodipodi.sourceforge.net/DTD/sodipodi-0.dtd"
   xmlns:inkscape="http://www.inkscape.org/namespaces/inkscape"
   aria-hidden="true"
   focusable="false"
   data-prefix="fas"
   data-icon="grip-horizontal"
   class="svg-inline--fa fa-grip-horizontal fa-w-14"
   role="img"
   viewBox="0 0 448 448"
   version="1.1"
   id="svg4"
   sodipodi:docname="GridView.svg"
   inkscape:version="0.92.3 (2405546, 2018-03-11)"
   width="448"
   height="448"
   inkscape:export-filename="/home/hugo/qx/examples/compositor/src/qxfiledialog/style/icons-ldpi/GridViewIcon.png"
   inkscape:export-xdpi="5.1428571"
   inkscape:export-ydpi="5.1428571">
  <metadata
     id="metadata10">
    <rdf:RDF>
      <cc:Work
         rdf:about="">
        <dc:format>image/svg+xml</dc:format>
        <dc:type
           rdf:resource="http://purl.org/dc/dcmitype/StillImage" />
        <dc:title></dc:title>
      </cc:Work>
    </rdf:RDF>
  </metadata>
  <defs
     id="defs8" />
  <sodipodi:namedview
     pagecolor="#ffffff"
     bordercolor="#666666"
     borderopacity="1"
     objecttolerance="10"
     gridtolerance="10"
     guidetolerance="10"
     inkscape:pageopacity="0"
     inkscape:pageshadow="2"
     inkscape:window-width="937"
     inkscape:window-height="603"
     id="namedview6"
     showgrid="false"
     inkscape:zoom="0.4609375"
     inkscape:cx="224"
     inkscape:cy="256"
     inkscape:window-x="0"
     inkscape:window-y="27"
     inkscape:window-maximized="0"
     inkscape:current-layer="svg4" />
  <path
     d="m 98.169492,256.54237 h -64 c -17.67,0 -32.0000005,14.33 -32.0000005,32 v 64 c 0,17.67 14.3300005,32 32.0000005,32 h 64 c 17.669998,0 31.999998,-14.33 31.999998,-32 v -64 c 0,-17.67 -14.33,-32 -31.999998,-32 z m 159.999998,0 h -64 c -17.67,0 -32,14.33 -32,32 v 64 c 0,17.67 14.33,32 32,32 h 64 c 17.67,0 32,-14.33 32,-32 v -64 c 0,-17.67 -14.33,-32 -32,-32 z m 160,0 h -64 c -17.67,0 -32,14.33 -32,32 v 64 c 0,17.67 14.33,32 32,32 h 64 c 17.67,0 32,-14.33 32,-32 v -64 c 0,-17.67 -14.33,-32 -32,-32 z M 98.169492,64.542373 h -64 c -17.67,0 -32.0000005,14.33 -32.0000005,32 v 63.999997 c 0,17.67 14.3300005,32 32.0000005,32 h 64 c 17.669998,0 31.999998,-14.33 31.999998,-32 V 96.542373 c 0,-17.67 -14.33,-32 -31.999998,-32 z m 159.999998,0 h -64 c -17.67,0 -32,14.33 -32,32 v 63.999997 c 0,17.67 14.33,32 32,32 h 64 c 17.67,0 32,-14.33 32,-32 V 96.542373 c 0,-17.67 -14.33,-32 -32,-32 z m 160,0 h -64 c -17.67,0 -32,14.33 -32,32 v 63.999997 c 0,17.67 14.33,32 32,32 h 64 c 17.67,0 32,-14.33 32,-32 V 96.542373 c 0,-17.67 -14.33,-32 -32,-32 z"
     id="path2"
     style="fill:#29bae2;fill-opacity:1"
     inkscape:connector-curvature="0" />
</svg>
