<?xml version="1.0" encoding="UTF-8" standalone="no"?>
<svg
   xmlns:dc="http://purl.org/dc/elements/1.1/"
   xmlns:cc="http://creativecommons.org/ns#"
   xmlns:rdf="http://www.w3.org/1999/02/22-rdf-syntax-ns#"
   xmlns:svg="http://www.w3.org/2000/svg"
   xmlns="http://www.w3.org/2000/svg"
   xmlns:sodipodi="http://sodipodi.sourceforge.net/DTD/sodipodi-0.dtd"
   xmlns:inkscape="http://www.inkscape.org/namespaces/inkscape"
   aria-hidden="true"
   focusable="false"
   data-prefix="fas"
   data-icon="folder"
   class="svg-inline--fa fa-folder fa-w-16"
   role="img"
   viewBox="0 0 512 512"
   version="1.1"
   id="svg4"
   sodipodi:docname="UpDirectory.svg"
   inkscape:version="0.92.3 (2405546, 2018-03-11)"
   inkscape:export-filename="/home/hugo/qx/examples/compositor/src/qxfiledialog/style/icons-ldpi/UpDirIcon.png"
   inkscape:export-xdpi="4.5677414"
   inkscape:export-ydpi="4.5677414">
  <metadata
     id="metadata10">
    <rdf:RDF>
      <cc:Work
         rdf:about="">
        <dc:format>image/svg+xml</dc:format>
        <dc:type
           rdf:resource="http://purl.org/dc/dcmitype/StillImage" />
      </cc:Work>
    </rdf:RDF>
  </metadata>
  <defs
     id="defs8" />
  <sodipodi:namedview
     pagecolor="#ffffff"
     bordercolor="#666666"
     borderopacity="1"
     objecttolerance="10"
     gridtolerance="10"
     guidetolerance="10"
     inkscape:pageopacity="0"
     inkscape:pageshadow="2"
     inkscape:window-width="991"
     inkscape:window-height="687"
     id="namedview6"
     showgrid="false"
     inkscape:zoom="0.4609375"
     inkscape:cx="176.81356"
     inkscape:cy="197.42373"
     inkscape:window-x="346"
     inkscape:window-y="99"
     inkscape:window-maximized="0"
     inkscape:current-layer="svg4" />
  <path
     d="M 464,188.74576 H 272 l -64,-64 H 48 c -26.51,0 -48,21.49 -48,48 v 288 c 0,26.51 21.49,48 48,48 h 416 c 26.51,0 48,-21.49 48,-48 v -224 c 0,-26.51 -21.49,-48 -48,-48 z"
     id="path2"
     style="fill:#0071bc;fill-opacity:1"
     inkscape:connector-curvature="0" />
  <path
     inkscape:connector-curvature="0"
     style="fill:#29bae2;fill-opacity:1;stroke-width:0.89486873"
     d="M 496.59505,104.23223 396.85819,10.738187 c -9.09917,-8.5260931 -24.63155,-8.5386149 -33.74321,0 l -99.7455,93.494043 c -13.62813,12.7716 -3.23866,33.66613 16.8716,33.66613 h 61.37262 v 227.05086 h -80.56002 a 11.508026,10.013611 0 0 0 -8.13984,2.93412 l -53.72203,46.74577 c -7.25248,6.30985 -2.11628,17.09977 8.13984,17.09977 h 188.00409 c 12.7158,0 23.02373,-8.96934 23.02373,-20.03389 V 137.89836 h 61.36398 c 20.02873,0 30.55537,-20.84278 16.8716,-33.66613 z"
     id="path2-3" />
</svg>
