<?xml version="1.0" encoding="UTF-8" standalone="no"?>
<svg
   xmlns:dc="http://purl.org/dc/elements/1.1/"
   xmlns:cc="http://creativecommons.org/ns#"
   xmlns:rdf="http://www.w3.org/1999/02/22-rdf-syntax-ns#"
   xmlns:svg="http://www.w3.org/2000/svg"
   xmlns="http://www.w3.org/2000/svg"
   xmlns:sodipodi="http://sodipodi.sourceforge.net/DTD/sodipodi-0.dtd"
   xmlns:inkscape="http://www.inkscape.org/namespaces/inkscape"
   version="1.1"
   x="0px"
   y="0px"
   viewBox="0 0 48 48"
   enable-background="new 0 0 48 48"
   xml:space="preserve"
   id="svg4"
   sodipodi:docname="video.svg"
   inkscape:version="0.92.4 (5da689c313, 2019-01-14)"><metadata
     id="metadata10"><rdf:RDF><cc:Work
         rdf:about=""><dc:format>image/svg+xml</dc:format><dc:type
           rdf:resource="http://purl.org/dc/dcmitype/StillImage" /></cc:Work></rdf:RDF></metadata><defs
     id="defs8" /><sodipodi:namedview
     pagecolor="#ffffff"
     bordercolor="#666666"
     borderopacity="1"
     objecttolerance="10"
     gridtolerance="10"
     guidetolerance="10"
     inkscape:pageopacity="0"
     inkscape:pageshadow="2"
     inkscape:window-width="1411"
     inkscape:window-height="738"
     id="namedview6"
     showgrid="false"
     inkscape:zoom="4.9166667"
     inkscape:cx="24.101695"
     inkscape:cy="24"
     inkscape:window-x="414"
     inkscape:window-y="100"
     inkscape:window-maximized="0"
     inkscape:current-layer="svg4" /><path
     fill-rule="evenodd"
     clip-rule="evenodd"
     d="M43,42H5c-2.209,0-4-1.791-4-4V10c0-2.209,1.791-4,4-4h38c2.209,0,4,1.791,4,4v28  C47,40.209,45.209,42,43,42z M12,8H5c-1.104,0-2,0.896-2,2v2h9V8z M23,8h-9v4h9V8z M34,8h-9v4h9V8z M45,10c0-1.104-0.896-2-2-2h-7v4  h9l0,0V10z M45,14L45,14H3v20h42l0,0V14z M45,36L45,36h-9v4h-2v-4h-9v4h-2v-4h-9v4h-2v-4H3v2c0,1.104,0.896,2,2,2h38  c1.104,0,2-0.896,2-2V36z M21.621,29.765C21.449,29.904,21.238,30,21,30c-0.553,0-1-0.447-1-1V19c0-0.552,0.447-1,1-1  c0.213,0,0.4,0.082,0.563,0.196l7.771,4.872C29.72,23.205,30,23.566,30,24c0,0.325-0.165,0.601-0.405,0.783L21.621,29.765z"
     id="path2"
     style="fill:#418f6a;fill-opacity:1" /></svg>