<?xml version="1.0" encoding="UTF-8" standalone="no"?>
<svg
   xmlns:dc="http://purl.org/dc/elements/1.1/"
   xmlns:cc="http://creativecommons.org/ns#"
   xmlns:rdf="http://www.w3.org/1999/02/22-rdf-syntax-ns#"
   xmlns:svg="http://www.w3.org/2000/svg"
   xmlns="http://www.w3.org/2000/svg"
   xmlns:sodipodi="http://sodipodi.sourceforge.net/DTD/sodipodi-0.dtd"
   xmlns:inkscape="http://www.inkscape.org/namespaces/inkscape"
   width="972"
   height="971"
   viewBox="0 -410 2580 1500"
   version="1.0"
   id="svg7"
   sodipodi:docname="Alpha.svg"
   inkscape:export-filename="/home/hugo/qx/examples/compositor/examples/rotonode/icons-ldpi/Alpha.png"
   inkscape:export-xdpi="2.07621"
   inkscape:export-ydpi="2.07621"
   inkscape:version="0.92.4 (5da689c313, 2019-01-14)">
  <metadata
     id="metadata13">
    <rdf:RDF>
      <cc:Work
         rdf:about="">
        <dc:format>image/svg+xml</dc:format>
        <dc:type
           rdf:resource="http://purl.org/dc/dcmitype/StillImage" />
        <dc:title>Lowercase alpha</dc:title>
      </cc:Work>
    </rdf:RDF>
  </metadata>
  <defs
     id="defs11" />
  <sodipodi:namedview
     pagecolor="#ffffff"
     bordercolor="#666666"
     borderopacity="1"
     objecttolerance="10"
     gridtolerance="10"
     guidetolerance="10"
     inkscape:pageopacity="0"
     inkscape:pageshadow="2"
     inkscape:window-width="1209"
     inkscape:window-height="774"
     id="namedview9"
     showgrid="false"
     inkscape:pagecheckerboard="true"
     inkscape:zoom="0.2430484"
     inkscape:cx="488.0572"
     inkscape:cy="485.5"
     inkscape:window-x="0"
     inkscape:window-y="27"
     inkscape:window-maximized="0"
     inkscape:current-layer="g5" />
  <title
     xml:lang="en"
     id="title2">Lowercase alpha</title>
  <g
     transform="matrix(2.654321,0,0,-2.654321,-230.92593,1554.3519)"
     id="g5">
    <path
       id="alpha"
       d="M 788,916 H 958 L 855,453 C 835,365 821.33333,311 814,291 840.66667,168.33333 879.33333,107 930,107 c 60,0 91,41.33333 93,124 h 36 C 1057,153.66667 1042.8333,91.166667 1016.5,43.5 990.16667,-4.1666667 955.66667,-28 913,-28 877.66667,-28 851.33333,-13.666667 834,15 816.66667,43.666667 798,102.33333 778,191 708.66667,45 595.33333,-28 438,-28 330.66667,-28 245.33333,13.833333 182,97.5 118.66667,181.16667 87,301 87,457 c 0,153.33333 34.66667,272.66667 104,358 69.33333,85.33333 152.66667,128 250,128 68.66667,0 125,-24.33333 169,-73 44,-48.66667 83,-128 117,-238 z M 700,524 C 668.66667,631.33333 633.66667,715.16667 595,775.5 556.33333,835.83333 510,866 456,866 334,866 273,723.33333 273,438 273,167.33333 331.33333,32 448,32 549.33333,32 624.33333,151.33333 673,390 Z"
       inkscape:connector-curvature="0"
       style="fill:#ffffff;fill-opacity:1" />
  </g>
</svg>
