<?xml version="1.0" encoding="UTF-8" standalone="no"?>
<svg
   id="Layer_1"
   x="0"
   y="0"
   enable-background="new 0 0 20 20"
   version="1.1"
   viewBox="0 0 20 20"
   width="512"
   height="512"
   xml:space="preserve"
   sodipodi:docname="BezierSpline.svg"
   inkscape:version="1.1 (c4e8f9ed74, 2021-05-24)"
   xmlns:inkscape="http://www.inkscape.org/namespaces/inkscape"
   xmlns:sodipodi="http://sodipodi.sourceforge.net/DTD/sodipodi-0.dtd"
   xmlns="http://www.w3.org/2000/svg"
   xmlns:svg="http://www.w3.org/2000/svg"><defs
     id="defs5" /><sodipodi:namedview
     id="namedview3"
     pagecolor="#ffffff"
     bordercolor="#666666"
     borderopacity="1.0"
     inkscape:pageshadow="2"
     inkscape:pageopacity="0.0"
     inkscape:pagecheckerboard="true"
     showgrid="false"
     inkscape:zoom="0.21264648"
     inkscape:cx="91.701492"
     inkscape:cy="-754.77382"
     inkscape:window-width="1916"
     inkscape:window-height="1034"
     inkscape:window-x="0"
     inkscape:window-y="21"
     inkscape:window-maximized="1"
     inkscape:current-layer="Layer_1" /><rect
     style="opacity:0.996;fill:#ffffff;stroke:none;stroke-width:0.163189;stroke-linecap:round;stroke-linejoin:round;stroke-dasharray:0.489567, 0.489567;fill-opacity:1"
     id="rect5887"
     width="1.4834194"
     height="1.4834194"
     x="2.8215635"
     y="14.272426"
     ry="0.15937376" /><rect
     style="opacity:0.996;fill:#ffffff;stroke:none;stroke-width:0.163189;stroke-linecap:round;stroke-linejoin:round;stroke-dasharray:0.489567, 0.489567;fill-opacity:1"
     id="rect5889"
     width="1.4834194"
     height="1.4834194"
     x="15.695017"
     y="4.2441549"
     ry="0.15937376" /><path
     style="color:#000000;fill:#ffffff;-inkscape-stroke:none;fill-opacity:1"
     d="m 15.785156,4.578125 c -2.295014,0 -3.680491,0.6813536 -4.496093,1.7265625 C 10.47346,7.3498964 10.228817,8.6683196 9.9550781,9.9140625 9.6813393,11.159805 9.3838993,12.328193 8.6308594,13.166016 7.8778195,14.003839 6.6439399,14.591797 4.2773437,14.591797 v 0.837891 c 2.5102303,0 4.0442254,-0.663646 4.9785157,-1.703125 0.9342906,-1.03948 1.2432466,-2.373532 1.5195316,-3.63086 0.276284,-1.2573274 0.526478,-2.4432966 1.175781,-3.2753905 0.649303,-0.8320939 1.697021,-1.4023437 3.833984,-1.4023438 z"
     id="path5891" /><circle
     style="opacity:0.996;fill:#ffffff;stroke:none;stroke-width:1.03056;stroke-linecap:round;stroke-linejoin:round;stroke-miterlimit:4;stroke-dasharray:none;fill-opacity:1"
     id="circle5893"
     cx="10.236162"
     cy="10.594084"
     r="0.9573037" /></svg>
