<?xml version="1.0" encoding="UTF-8" standalone="no"?>
<svg
   id="Layer_1"
   x="0"
   y="0"
   enable-background="new 0 0 20 20"
   version="1.1"
   viewBox="0 0 20 20"
   width="512"
   height="512"
   xml:space="preserve"
   sodipodi:docname="BSpline.svg"
   inkscape:version="1.1 (c4e8f9ed74, 2021-05-24)"
   xmlns:inkscape="http://www.inkscape.org/namespaces/inkscape"
   xmlns:sodipodi="http://sodipodi.sourceforge.net/DTD/sodipodi-0.dtd"
   xmlns="http://www.w3.org/2000/svg"
   xmlns:svg="http://www.w3.org/2000/svg"><defs
     id="defs5" /><sodipodi:namedview
     id="namedview3"
     pagecolor="#ffffff"
     bordercolor="#666666"
     borderopacity="1.0"
     inkscape:pageshadow="2"
     inkscape:pageopacity="0.0"
     inkscape:pagecheckerboard="true"
     showgrid="false"
     inkscape:snap-bbox="true"
     inkscape:bbox-paths="true"
     inkscape:bbox-nodes="true"
     inkscape:snap-bbox-edge-midpoints="true"
     inkscape:snap-bbox-midpoints="true"
     inkscape:snap-midpoints="true"
     inkscape:zoom="0.85058594"
     inkscape:cx="208.67968"
     inkscape:cy="310.96211"
     inkscape:window-width="1916"
     inkscape:window-height="1034"
     inkscape:window-x="0"
     inkscape:window-y="21"
     inkscape:window-maximized="1"
     inkscape:current-layer="Layer_1" /><rect
     style="opacity:0.996;fill:#ffffff;stroke:none;stroke-width:0.130055;stroke-linecap:round;stroke-linejoin:round;stroke-dasharray:0.390166, 0.390166;fill-opacity:1"
     id="rect5897"
     width="1.1822259"
     height="1.1822259"
     x="4.2790747"
     y="13.404953"
     ry="0.1270145" /><rect
     style="opacity:0.996;fill:#ffffff;stroke:none;stroke-width:0.130055;stroke-linecap:round;stroke-linejoin:round;stroke-dasharray:0.390166, 0.390166;fill-opacity:1"
     id="rect5899"
     width="1.1822259"
     height="1.1822259"
     x="14.538699"
     y="5.4128208"
     ry="0.1270145" /><path
     style="color:#000000;fill:#ffffff;-inkscape-stroke:none;fill-opacity:1"
     d="m 14.912109,5.9570312 c 0,2.858804 -1.110804,4.7391898 -2.84375,5.9550778 -1.732945,1.215889 -4.1197326,1.746094 -6.6289059,1.746094 v 0.669922 c 2.6025605,0 5.1188059,-0.539061 7.0117189,-1.867187 1.892913,-1.328127 3.130859,-3.4674503 3.130859,-6.5039068 z"
     id="path5901" /><path
     id="circle5903"
     style="opacity:0.996;fill:#ffffff;stroke-width:0.821315;stroke-linecap:round;stroke-linejoin:round;fill-opacity:1"
     d="m 15.581305,13.824246 a 0.76293272,0.76293272 0 0 1 -0.762932,0.762933 0.76293272,0.76293272 0 0 1 -0.762933,-0.762933 0.76293272,0.76293272 0 0 1 0.762933,-0.762933 0.76293272,0.76293272 0 0 1 0.762932,0.762933 z" /></svg>
