<?xml version="1.0" encoding="UTF-8" standalone="no"?>
<svg
   id="Layer_1"
   x="0"
   y="0"
   enable-background="new 0 0 20 20"
   version="1.1"
   viewBox="0 0 20 20"
   width="512"
   height="512"
   xml:space="preserve"
   sodipodi:docname="Locked.svg"
   inkscape:version="1.1 (c4e8f9ed74, 2021-05-24)"
   xmlns:inkscape="http://www.inkscape.org/namespaces/inkscape"
   xmlns:sodipodi="http://sodipodi.sourceforge.net/DTD/sodipodi-0.dtd"
   xmlns="http://www.w3.org/2000/svg"
   xmlns:svg="http://www.w3.org/2000/svg"><defs
     id="defs5" /><sodipodi:namedview
     id="namedview3"
     pagecolor="#ffffff"
     bordercolor="#666666"
     borderopacity="1.0"
     inkscape:pageshadow="2"
     inkscape:pageopacity="0.0"
     inkscape:pagecheckerboard="true"
     showgrid="false"
     inkscape:zoom="0.85058594"
     inkscape:cx="81.708381"
     inkscape:cy="251.00344"
     inkscape:window-width="1916"
     inkscape:window-height="1034"
     inkscape:window-x="0"
     inkscape:window-y="21"
     inkscape:window-maximized="1"
     inkscape:current-layer="Layer_1" /><path
     id="rect5927"
     style="opacity:0.996;fill:#ffffff;fill-opacity:0.99803901;stroke-width:1.01999;stroke-linecap:round;stroke-linejoin:round"
     d="m 5.1628321,9.566308 h 9.6743349 c 0.23092,0 0.416823,0.1859029 0.416823,0.4168227 v 5.0343573 c 0,0.23092 -0.185903,0.416822 -0.416823,0.416822 H 5.1628321 c -0.2309198,0 -0.4168228,-0.185902 -0.4168228,-0.416822 V 9.9831307 c 0,-0.2309198 0.185903,-0.4168227 0.4168228,-0.4168227 z" /><path
     style="color:#000000;fill:#ffffff;-inkscape-stroke:none;fill-opacity:0.99803901"
     d="m 10.037109,4.5664062 c -0.9425279,0 -1.6930176,0.3379092 -2.2343746,0.8378907 C 7.2613774,5.9042784 6.9204777,6.5478964 6.6972656,7.1738281 6.2508416,8.4256915 6.2636719,9.6523438 6.2636719,9.6523438 l 0.8105468,-0.00391 c 0,0 -0.00125,-1.1132383 0.3867188,-2.2011719 C 7.6549202,6.9032988 7.9448384,6.3774423 8.3535156,6 8.7621928,5.6225577 9.2806026,5.3769531 10.037109,5.3769531 c 0.754187,0 1.279425,0.2515435 1.697266,0.640625 0.417841,0.3890815 0.717266,0.930342 0.921875,1.4902344 0.409218,1.1197849 0.427734,2.2636719 0.427734,2.2636719 l 0.810547,-0.00781 c 0,0 -0.0094,-1.2548264 -0.476562,-2.5332032 -0.233587,-0.6391883 -0.582916,-1.2964114 -1.13086,-1.8066406 -0.547943,-0.5102291 -1.305151,-0.8574219 -2.25,-0.8574219 z"
     id="path5929" /></svg>
