<?xml version="1.0" encoding="UTF-8" standalone="no"?>
<svg
   id="Layer_1"
   x="0"
   y="0"
   enable-background="new 0 0 20 20"
   version="1.1"
   viewBox="0 0 20 20"
   width="512"
   height="512"
   xml:space="preserve"
   sodipodi:docname="NotInverted.svg"
   inkscape:version="1.1 (c4e8f9ed74, 2021-05-24)"
   xmlns:inkscape="http://www.inkscape.org/namespaces/inkscape"
   xmlns:sodipodi="http://sodipodi.sourceforge.net/DTD/sodipodi-0.dtd"
   xmlns="http://www.w3.org/2000/svg"
   xmlns:svg="http://www.w3.org/2000/svg"><defs
     id="defs5" /><sodipodi:namedview
     id="namedview3"
     pagecolor="#ffffff"
     bordercolor="#666666"
     borderopacity="1.0"
     inkscape:pageshadow="2"
     inkscape:pageopacity="0.0"
     inkscape:pagecheckerboard="true"
     showgrid="false"
     inkscape:zoom="1.2029102"
     inkscape:cx="308.00305"
     inkscape:cy="272.25641"
     inkscape:window-width="1916"
     inkscape:window-height="1034"
     inkscape:window-x="0"
     inkscape:window-y="21"
     inkscape:window-maximized="1"
     inkscape:current-layer="Layer_1" /><path
     id="rect5915"
     style="color:#000000;opacity:0.996;fill:#ffffff;stroke-width:1;stroke-linecap:round;stroke-linejoin:round;-inkscape-stroke:none;fill-opacity:1"
     d="m 6.4830539,4.6561307 0.6919098,0.6777192 h 7.61e-5 L 11.0745,9.1529721 14.893546,5.3338499 v 7.5595091 l 0.679702,0.665665 V 5.0858182 c 0,-0.2330582 -0.198611,-0.4296875 -0.431671,-0.4296875 z M 5.3102633,4.773776 C 5.2255359,4.8528272 5.1708742,4.9638702 5.1708742,5.0858182 v 9.5410158 c 0,0.23306 0.1966293,0.429687 0.4296875,0.429687 h 9.5410153 c 0.175069,0 0.330585,-0.111011 0.397187,-0.265045 l -0.645218,-0.631943 v 0.219193 H 5.8487457 L 10.434775,9.792697 6.6618867,6.0975522 5.8820863,5.3338499 Z" /><path
     style="color:#000000;fill:#ffffff;stroke-width:0.341914;-inkscape-stroke:none;fill-opacity:1"
     d="M 4.0798774,3.568777 3.4334108,4.2018925 15.920115,16.431223 16.566589,15.798118 Z"
     id="path5921" /></svg>
