<?xml version="1.0" encoding="UTF-8" standalone="no"?>
<svg
   id="Layer_1"
   x="0"
   y="0"
   enable-background="new 0 0 20 20"
   version="1.1"
   viewBox="0 0 20 20"
   width="512"
   height="512"
   xml:space="preserve"
   sodipodi:docname="NotVisible.svg"
   inkscape:version="1.1 (c4e8f9ed74, 2021-05-24)"
   xmlns:inkscape="http://www.inkscape.org/namespaces/inkscape"
   xmlns:sodipodi="http://sodipodi.sourceforge.net/DTD/sodipodi-0.dtd"
   xmlns="http://www.w3.org/2000/svg"
   xmlns:svg="http://www.w3.org/2000/svg"><defs
     id="defs5" /><sodipodi:namedview
     id="namedview3"
     pagecolor="#ffffff"
     bordercolor="#666666"
     borderopacity="1.0"
     inkscape:pageshadow="2"
     inkscape:pageopacity="0.0"
     inkscape:pagecheckerboard="true"
     showgrid="false"
     inkscape:zoom="0.60145508"
     inkscape:cx="226.94962"
     inkscape:cy="466.36899"
     inkscape:window-width="1916"
     inkscape:window-height="1034"
     inkscape:window-x="0"
     inkscape:window-y="21"
     inkscape:window-maximized="1"
     inkscape:current-layer="Layer_1" /><path
     id="path5939"
     style="opacity:0.996;fill:#fdfdfd;fill-opacity:0.99803901;stroke:none;stroke-width:1.05902;stroke-linecap:round;stroke-linejoin:round;stroke-miterlimit:4;stroke-dasharray:none"
     d="M 9.9998475,7.3893581 A 6.2260379,2.4020255 0 0 0 8.6523439,7.4465022 L 9.3677521,8.147262 A 2.3539255,1.7072652 0 0 1 9.9998475,8.084167 2.3539255,1.7072652 0 0 1 12.353897,9.7913966 2.3539255,1.7072652 0 0 1 11.984024,10.709594 l 1.175613,1.151352 A 6.2260379,2.4020255 0 0 0 16.225967,9.7913966 6.2260379,2.4020255 0 0 0 9.9998475,7.3893581 Z M 7.6621248,7.5652155 A 6.2260379,2.4020255 0 0 0 3.7740326,9.7913963 6.2260379,2.4020255 0 0 0 9.9998475,12.193435 6.2260379,2.4020255 0 0 0 12.22557,12.034591 L 11.358566,11.185439 A 2.3539255,1.7072652 0 0 1 9.9998475,11.498626 2.3539255,1.7072652 0 0 1 7.6460267,9.7913963 2.3539255,1.7072652 0 0 1 8.5576631,8.4422905 Z" /><path
     style="color:#000000;fill:#fdfdfd;stroke-width:0.293908;-inkscape-stroke:none;fill-opacity:0.99803901"
     d="M 4.5035655,4.4717435 3.9478624,5.0159672 14.681382,15.528256 15.237089,14.98404 Z"
     id="path5941" /></svg>
