<?xml version="1.0" encoding="UTF-8" standalone="no"?>
<svg
   id="Layer_1"
   x="0"
   y="0"
   enable-background="new 0 0 20 20"
   version="1.1"
   viewBox="0 0 20 20"
   width="512"
   height="512"
   xml:space="preserve"
   sodipodi:docname="Unlocked.svg"
   inkscape:version="1.1 (c4e8f9ed74, 2021-05-24)"
   xmlns:inkscape="http://www.inkscape.org/namespaces/inkscape"
   xmlns:sodipodi="http://sodipodi.sourceforge.net/DTD/sodipodi-0.dtd"
   xmlns="http://www.w3.org/2000/svg"
   xmlns:svg="http://www.w3.org/2000/svg"><defs
     id="defs5" /><sodipodi:namedview
     id="namedview3"
     pagecolor="#ffffff"
     bordercolor="#666666"
     borderopacity="1.0"
     inkscape:pageshadow="2"
     inkscape:pageopacity="0.0"
     inkscape:pagecheckerboard="true"
     showgrid="false"
     inkscape:zoom="0.85058594"
     inkscape:cx="414.42021"
     inkscape:cy="185.16648"
     inkscape:window-width="1916"
     inkscape:window-height="1034"
     inkscape:window-x="0"
     inkscape:window-y="21"
     inkscape:window-maximized="1"
     inkscape:current-layer="Layer_1" /><path
     id="rect5933"
     style="opacity:0.996;fill:#ffffff;fill-opacity:0.99803901;stroke-width:0.984309;stroke-linecap:round;stroke-linejoin:round"
     d="m 5.3320358,9.5814791 h 9.3359322 c 0.222842,0 0.402242,0.1794001 0.402242,0.4022424 V 14.84198 c 0,0.222842 -0.1794,0.402242 -0.402242,0.402242 H 5.3320358 c -0.2228423,0 -0.4022424,-0.1794 -0.4022424,-0.402242 V 9.9837215 c 0,-0.2228423 0.1794001,-0.4022424 0.4022424,-0.4022424 z" /><path
     style="color:#000000;fill:#ffffff;-inkscape-stroke:none;fill-opacity:0.99803901"
     d="m 10.035156,4.7558594 c -0.9095608,0 -1.6338285,0.326101 -2.1562498,0.8085937 C 7.356485,6.0469458 7.0279038,6.6694003 6.8125,7.2734375 6.3816924,8.4815119 6.3945312,9.6660156 6.3945312,9.6660156 l 0.7832032,-0.00586 c 0,0 -0.0033,-1.073169 0.3710937,-2.1230469 C 7.7360249,7.0121704 8.0157743,6.5048644 8.4101563,6.140625 8.8045382,5.7763856 9.3051099,5.5371094 10.035156,5.5371094 c 1.545995,0 2.200026,0.5210963 2.533203,1.0078125 0.333178,0.4867161 0.328125,0.953125 0.328125,0.953125 l 0.783204,0.00781 c 0,0 0.008,-0.711638 -0.464844,-1.4023438 C 12.742027,5.4128099 11.768369,4.7558594 10.035156,4.7558594 Z"
     id="path5935" /></svg>
