<?xml version="1.0" encoding="UTF-8" standalone="no"?>
<svg
   id="Layer_1"
   x="0"
   y="0"
   enable-background="new 0 0 20 20"
   version="1.1"
   viewBox="0 0 20 20"
   width="512"
   height="512"
   xml:space="preserve"
   sodipodi:docname="Visible.svg"
   inkscape:version="1.1 (c4e8f9ed74, 2021-05-24)"
   xmlns:inkscape="http://www.inkscape.org/namespaces/inkscape"
   xmlns:sodipodi="http://sodipodi.sourceforge.net/DTD/sodipodi-0.dtd"
   xmlns="http://www.w3.org/2000/svg"
   xmlns:svg="http://www.w3.org/2000/svg"><defs
     id="defs5" /><sodipodi:namedview
     id="namedview3"
     pagecolor="#ffffff"
     bordercolor="#666666"
     borderopacity="1.0"
     inkscape:pageshadow="2"
     inkscape:pageopacity="0.0"
     inkscape:pagecheckerboard="true"
     showgrid="false"
     inkscape:snap-bbox="true"
     inkscape:snap-bbox-midpoints="true"
     inkscape:snap-bbox-edge-midpoints="true"
     inkscape:bbox-nodes="true"
     inkscape:bbox-paths="true"
     inkscape:snap-midpoints="true"
     inkscape:snap-smooth-nodes="true"
     inkscape:snap-object-midpoints="true"
     inkscape:zoom="0.42529297"
     inkscape:cx="236.30769"
     inkscape:cy="417.35936"
     inkscape:window-width="1440"
     inkscape:window-height="810"
     inkscape:window-x="292"
     inkscape:window-y="127"
     inkscape:window-maximized="0"
     inkscape:current-layer="Layer_1" /><path
     id="path5947"
     style="opacity:0.996;fill:#ffffff;fill-opacity:0.99607801;stroke:none;stroke-width:1.05901;stroke-linecap:round;stroke-linejoin:round;stroke-miterlimit:4;stroke-dasharray:none"
     d="M 9.999891,7.5979752 A 6.2260338,2.4020238 0 0 0 3.7740329,10.000008 6.2260338,2.4020238 0 0 0 9.999891,12.402025 6.2260338,2.4020238 0 0 0 16.225967,10.000008 6.2260338,2.4020238 0 0 0 9.999891,7.5979752 Z m 0,0.6948052 A 2.353924,1.707264 0 0 1 12.353925,10.00004 2.353924,1.707264 0 0 1 9.999891,11.707276 2.353924,1.707264 0 0 1 7.646065,10.00004 2.353924,1.707264 0 0 1 9.999891,8.2927804 Z" /></svg>
