<?xml version="1.0" encoding="UTF-8" standalone="no"?>
<svg
   xmlns:dc="http://purl.org/dc/elements/1.1/"
   xmlns:cc="http://creativecommons.org/ns#"
   xmlns:rdf="http://www.w3.org/1999/02/22-rdf-syntax-ns#"
   xmlns:svg="http://www.w3.org/2000/svg"
   xmlns="http://www.w3.org/2000/svg"
   version="1.1"
   id="svg2"
   xml:space="preserve"
   width="28"
   height="28"
   viewBox="0 0 28 28"><metadata
     id="metadata8"><rdf:RDF><cc:Work
         rdf:about=""><dc:format>image/svg+xml</dc:format><dc:type
           rdf:resource="http://purl.org/dc/dcmitype/StillImage" /></cc:Work></rdf:RDF></metadata><defs
     id="defs6"><clipPath
       clipPathUnits="userSpaceOnUse"
       id="clipPath18"><path
         d="M 0,21 H 21 V 0 H 0 Z"
         id="path16" /></clipPath><clipPath
       clipPathUnits="userSpaceOnUse"
       id="clipPath30"><path
         d="M 0,21 H 21 V 0 H 0 Z"
         id="path28" /></clipPath></defs><g
     id="g10"
     transform="matrix(1.3333333,0,0,-1.3333333,0,28)"><g
       id="g12"><g
         id="g14"
         clip-path="url(#clipPath18)"><g
           id="g20"
           transform="translate(21,0.5)"><path
             d="m 0,0 c 0,-0.275 -0.225,-0.5 -0.5,-0.5 h -20 c -0.275,0 -0.5,0.225 -0.5,0.5 v 20 c 0,0.275 0.225,0.5 0.5,0.5 h 20 C -0.225,20.5 0,20.275 0,20 Z"
             style="fill:#333333;fill-opacity:1;fill-rule:nonzero;stroke:none"
             id="path22" /></g></g></g><g
       id="g24"><g
         id="g26"
         clip-path="url(#clipPath30)"><g
           id="g32"
           transform="translate(18.1104,2.1543)"><path
             d="M 0,0 H -1.034 C -2.489,0 -4.259,3.602 -4.952,5.15 -5.408,6.168 -5.83,6.415 -6.023,6.418 -6.225,6.41 -6.723,6.064 -7.173,4.809 L -7.712,3.307 c -0.859,-2.401 -2.183,-2.868 -2.894,-2.934 -0.647,-0.062 -1.887,0.111 -2.948,1.932 l -2.435,4.174 c -0.248,0.423 -0.104,0.969 0.321,1.216 0.426,0.248 0.969,0.105 1.216,-0.319 l 2.435,-4.175 c 0.406,-0.695 0.867,-1.103 1.247,-1.055 0.358,0.032 0.936,0.514 1.382,1.76 l 0.539,1.504 c 0.848,2.365 2.093,2.761 2.757,2.787 0.633,0.016 1.835,-0.244 2.766,-2.32 1.052,-2.35 2.079,-3.772 2.462,-4.096 H 0 c 0.491,0 0.89,-0.4 0.89,-0.892 C 0.89,0.398 0.491,0 0,0"
             style="fill:#8cc63f;fill-opacity:1;fill-rule:nonzero;stroke:none"
             id="path34" /></g><g
           id="g36"
           transform="translate(10.7773,15.8008)"><path
             d="m 0,0 h -2.978 v 2.979 c 0,0.122 -0.1,0.222 -0.222,0.222 h -1.155 c -0.123,0 -0.223,-0.1 -0.223,-0.222 V 0 h -2.978 c -0.122,0 -0.222,-0.1 -0.222,-0.222 v -1.156 c 0,-0.122 0.1,-0.222 0.222,-0.222 h 2.978 v -2.978 c 0,-0.123 0.1,-0.223 0.223,-0.223 H -3.2 c 0.122,0 0.222,0.1 0.222,0.223 V -1.6 H 0 c 0.123,0 0.223,0.1 0.223,0.222 v 1.156 C 0.223,-0.1 0.123,0 0,0"
             style="fill:#29abe2;fill-opacity:1;fill-rule:nonzero;stroke:none"
             id="path38" /></g></g></g></g></svg>
