<?xml version="1.0" encoding="UTF-8" standalone="no"?>
<svg
   xmlns:dc="http://purl.org/dc/elements/1.1/"
   xmlns:cc="http://creativecommons.org/ns#"
   xmlns:rdf="http://www.w3.org/1999/02/22-rdf-syntax-ns#"
   xmlns:svg="http://www.w3.org/2000/svg"
   xmlns="http://www.w3.org/2000/svg"
   version="1.1"
   id="svg2"
   xml:space="preserve"
   width="28"
   height="28"
   viewBox="0 0 28 28"><metadata
     id="metadata8"><rdf:RDF><cc:Work
         rdf:about=""><dc:format>image/svg+xml</dc:format><dc:type
           rdf:resource="http://purl.org/dc/dcmitype/StillImage" /></cc:Work></rdf:RDF></metadata><defs
     id="defs6"><clipPath
       clipPathUnits="userSpaceOnUse"
       id="clipPath18"><path
         d="M 0,21 H 21 V 0 H 0 Z"
         id="path16" /></clipPath><clipPath
       clipPathUnits="userSpaceOnUse"
       id="clipPath30"><path
         d="M 0,21 H 21 V 0 H 0 Z"
         id="path28" /></clipPath></defs><g
     id="g10"
     transform="matrix(1.3333333,0,0,-1.3333333,0,28)"><g
       id="g12"><g
         id="g14"
         clip-path="url(#clipPath18)"><g
           id="g20"
           transform="translate(21,0.5)"><path
             d="m 0,0 c 0,-0.275 -0.225,-0.5 -0.5,-0.5 h -20 c -0.275,0 -0.5,0.225 -0.5,0.5 v 20 c 0,0.275 0.225,0.5 0.5,0.5 h 20 C -0.225,20.5 0,20.275 0,20 Z"
             style="fill:#333333;fill-opacity:1;fill-rule:nonzero;stroke:none"
             id="path22" /></g></g></g><g
       id="g24"><g
         id="g26"
         clip-path="url(#clipPath30)"><path
           d="m 12.65,9.365 h -2.266 v 2.268 h 2.266 z m 0,-2.765 H 10.384 V 8.866 H 12.65 Z M 7.617,8.865 H 9.884 V 6.599 H 7.617 Z m -2.766,0 H 7.118 V 6.599 H 4.851 Z m 0,2.768 H 7.118 V 9.365 H 4.851 Z m 0,2.766 H 7.118 V 12.132 H 4.851 Z M 9.884,9.365 H 7.617 v 2.268 h 2.267 z m 0,2.768 H 7.617 V 14.4 h 2.267 z m 2.766,0 H 10.384 V 14.4 h 2.266 z m 3.018,-0.5 c 0.138,0 0.25,0.112 0.25,0.25 0,0.138 -0.112,0.25 -0.25,0.25 H 13.15 v 2.266 h 2.518 c 0.138,0 0.25,0.112 0.25,0.25 0,0.139 -0.112,0.25 -0.25,0.25 H 13.15 v 2.517 c 0,0.138 -0.112,0.25 -0.25,0.25 -0.137,0 -0.25,-0.112 -0.25,-0.25 v -2.517 h -2.266 v 2.517 c 0,0.138 -0.112,0.25 -0.25,0.25 -0.138,0 -0.25,-0.112 -0.25,-0.25 V 14.899 H 7.617 v 2.517 c 0,0.138 -0.112,0.25 -0.25,0.25 -0.138,0 -0.25,-0.112 -0.25,-0.25 V 14.899 H 4.851 v 2.517 c 0,0.138 -0.112,0.25 -0.25,0.25 -0.139,0 -0.25,-0.112 -0.25,-0.25 V 14.899 H 1.834 c -0.138,0 -0.25,-0.111 -0.25,-0.25 0,-0.138 0.112,-0.25 0.25,-0.25 H 4.351 V 12.133 H 1.834 c -0.138,0 -0.25,-0.112 -0.25,-0.25 0,-0.138 0.112,-0.25 0.25,-0.25 H 4.351 V 9.365 H 1.834 c -0.138,0 -0.25,-0.112 -0.25,-0.25 0,-0.137 0.112,-0.25 0.25,-0.25 H 4.351 V 6.6 H 1.834 C 1.696,6.6 1.584,6.487 1.584,6.35 1.584,6.212 1.696,6.1 1.834,6.1 H 4.351 V 3.582 c 0,-0.138 0.111,-0.25 0.25,-0.25 0.138,0 0.25,0.112 0.25,0.25 V 6.1 H 7.117 V 3.582 c 0,-0.138 0.112,-0.25 0.25,-0.25 0.138,0 0.25,0.112 0.25,0.25 V 6.1 H 9.884 V 3.582 c 0,-0.138 0.112,-0.25 0.25,-0.25 0.138,0 0.25,0.112 0.25,0.25 V 6.1 H 12.65 V 3.582 c 0,-0.138 0.113,-0.25 0.25,-0.25 0.138,0 0.25,0.112 0.25,0.25 V 6.1 h 2.518 c 0.138,0 0.25,0.112 0.25,0.25 0,0.137 -0.112,0.25 -0.25,0.25 H 13.15 v 2.265 h 2.518 c 0.138,0 0.25,0.113 0.25,0.25 0,0.138 -0.112,0.25 -0.25,0.25 H 13.15 v 2.268 z"
           style="fill:#444444;fill-opacity:1;fill-rule:nonzero;stroke:none"
           id="path32" /><g
           id="g34"
           transform="translate(19,2.5)"><path
             d="m 0,0 c 0,-0.275 -0.225,-0.5 -0.5,-0.5 h -1 C -1.774,-0.5 -2,-0.275 -2,0 v 16 c 0,0.274 0.226,0.5 0.5,0.5 h 1 C -0.225,16.5 0,16.274 0,16 Z"
             style="fill:#999999;fill-opacity:1;fill-rule:nonzero;stroke:none"
             id="path36" /></g><g
           id="g38"
           transform="translate(17,10.4995)"><path
             d="m 0,0 v 8 c 0,0.275 0.226,0.5 0.5,0.5 h 1 C 1.775,8.5 2,8.275 2,8 V 0 Z"
             style="fill:#cccccc;fill-opacity:1;fill-rule:nonzero;stroke:none"
             id="path40" /></g><g
           id="g42"
           transform="translate(15.834,6.6836)"><path
             d="m 0,0 c -5.421,0 -8.437,6.645 -8.563,6.928 -0.931,1.385 -1.987,2.224 -3.097,2.422 -1.175,0.211 -2.007,-0.385 -2.043,-0.411 -0.221,-0.161 -0.534,-0.115 -0.697,0.106 -0.164,0.221 -0.12,0.531 0.1,0.696 0.047,0.036 1.183,0.877 2.791,0.597 1.398,-0.239 2.683,-1.225 3.82,-2.93 C -7.621,7.271 -4.769,1 0,1 0.276,1 0.5,0.776 0.5,0.5 0.5,0.224 0.276,0 0,0"
             style="fill:#ff0000;fill-opacity:1;fill-rule:nonzero;stroke:none"
             id="path44" /></g><g
           id="g46"
           transform="translate(9.1616,6.3096)"><path
             d="M 0,0 C -1.499,0 -3.093,1.797 -3.286,2.021 -5.541,4.669 -7.407,5.079 -7.425,5.083 -7.694,5.138 -7.87,5.401 -7.816,5.67 -7.763,5.94 -7.504,6.115 -7.233,6.064 -7.145,6.047 -5.032,5.614 -2.526,2.671 -1.885,1.928 -0.578,0.818 0.183,1.022 0.666,1.149 0.907,1.866 1.024,2.446 1.071,2.725 2.291,9.644 6.607,10.211 6.875,10.249 7.132,10.055 7.168,9.78 7.204,9.507 7.011,9.255 6.738,9.22 3.145,8.748 2.018,2.328 2.007,2.264 1.751,0.998 1.223,0.261 0.435,0.055 0.292,0.018 0.146,0 0,0"
             style="fill:#29abe2;fill-opacity:1;fill-rule:nonzero;stroke:none"
             id="path48" /></g><g
           id="g50"
           transform="translate(2.5708,3)"><path
             d="m 0,0 c -0.049,0 -0.098,0.007 -0.147,0.022 -0.264,0.082 -0.412,0.361 -0.331,0.625 0.125,0.406 3.119,9.931 8.583,9.931 0.13,0 3.224,-0.036 5.559,-3.148 0.165,-0.221 0.12,-0.534 -0.101,-0.7 -0.22,-0.164 -0.533,-0.122 -0.7,0.1 C 10.84,9.527 8.214,9.577 8.103,9.578 3.376,9.578 0.506,0.445 0.478,0.353 0.412,0.138 0.214,0 0,0"
             style="fill:#8cc63f;fill-opacity:1;fill-rule:nonzero;stroke:none"
             id="path52" /></g></g></g></g></svg>
