<?xml version="1.0" encoding="UTF-8" standalone="no"?>
<svg
   xmlns:dc="http://purl.org/dc/elements/1.1/"
   xmlns:cc="http://creativecommons.org/ns#"
   xmlns:rdf="http://www.w3.org/1999/02/22-rdf-syntax-ns#"
   xmlns:svg="http://www.w3.org/2000/svg"
   xmlns="http://www.w3.org/2000/svg"
   version="1.1"
   id="svg2"
   xml:space="preserve"
   width="28"
   height="28"
   viewBox="0 0 28 28"><metadata
     id="metadata8"><rdf:RDF><cc:Work
         rdf:about=""><dc:format>image/svg+xml</dc:format><dc:type
           rdf:resource="http://purl.org/dc/dcmitype/StillImage" /></cc:Work></rdf:RDF></metadata><defs
     id="defs6"><clipPath
       clipPathUnits="userSpaceOnUse"
       id="clipPath18"><path
         d="M 0,21 H 21 V 0 H 0 Z"
         id="path16" /></clipPath><clipPath
       clipPathUnits="userSpaceOnUse"
       id="clipPath30"><path
         d="M 0,21 H 21 V 0 H 0 Z"
         id="path28" /></clipPath></defs><g
     id="g10"
     transform="matrix(1.3333333,0,0,-1.3333333,0,28)"><g
       id="g12"><g
         id="g14"
         clip-path="url(#clipPath18)"><g
           id="g20"
           transform="translate(21,0.5)"><path
             d="m 0,0 c 0,-0.275 -0.225,-0.5 -0.5,-0.5 h -20 c -0.275,0 -0.5,0.225 -0.5,0.5 v 20 c 0,0.275 0.225,0.5 0.5,0.5 h 20 C -0.225,20.5 0,20.275 0,20 Z"
             style="fill:#333333;fill-opacity:1;fill-rule:nonzero;stroke:none"
             id="path22" /></g></g></g><g
       id="g24"><g
         id="g26"
         clip-path="url(#clipPath30)"><g
           id="g32"
           transform="translate(2,7)"><path
             d="m 0,0 c 0,-0.275 0.225,-0.5 0.5,-0.5 h 7 C 7.775,-0.5 8,-0.275 8,0 8,0.275 7.775,0.5 7.5,0.5 h -7 C 0.225,0.5 0,0.275 0,0"
             style="fill:#29abe2;fill-opacity:1;fill-rule:nonzero;stroke:none"
             id="path34" /></g><g
           id="g36"
           transform="translate(2,4)"><path
             d="m 0,0 c 0,-0.275 0.225,-0.5 0.5,-0.5 h 7 C 7.775,-0.5 8,-0.275 8,0 8,0.275 7.775,0.5 7.5,0.5 h -7 C 0.225,0.5 0,0.275 0,0"
             style="fill:#29abe2;fill-opacity:1;fill-rule:nonzero;stroke:none"
             id="path38" /></g><g
           id="g40"
           transform="translate(12,6)"><path
             d="M 0,0 V -2.334 C 0,-2.975 0.525,-3.5 1.167,-3.5 H 5.834 C 6.475,-3.5 7,-2.975 7,-2.334 V 0 Z"
             style="fill:#0071bc;fill-opacity:1;fill-rule:nonzero;stroke:none"
             id="path42" /></g><g
           id="g44"
           transform="translate(19,6)"><path
             d="M 0,0 V 2.334 C 0,2.975 -0.525,3.5 -1.166,3.5 H -5.833 C -6.475,3.5 -7,2.975 -7,2.334 V 0 Z"
             style="fill:#29abe2;fill-opacity:1;fill-rule:nonzero;stroke:none"
             id="path46" /></g><g
           id="g48"
           transform="translate(2,16)"><path
             d="m 0,0 c 0,-0.275 0.225,-0.5 0.5,-0.5 h 7 C 7.775,-0.5 8,-0.275 8,0 8,0.275 7.775,0.5 7.5,0.5 h -7 C 0.225,0.5 0,0.275 0,0"
             style="fill:#29abe2;fill-opacity:1;fill-rule:nonzero;stroke:none"
             id="path50" /></g><g
           id="g52"
           transform="translate(2,13)"><path
             d="m 0,0 c 0,-0.275 0.225,-0.5 0.5,-0.5 h 7 C 7.775,-0.5 8,-0.275 8,0 8,0.275 7.775,0.5 7.5,0.5 h -7 C 0.225,0.5 0,0.275 0,0"
             style="fill:#29abe2;fill-opacity:1;fill-rule:nonzero;stroke:none"
             id="path54" /></g><g
           id="g56"
           transform="translate(12,15)"><path
             d="M 0,0 V -2.333 C 0,-2.975 0.525,-3.5 1.167,-3.5 H 5.834 C 6.475,-3.5 7,-2.975 7,-2.333 V 0 Z"
             style="fill:#0071bc;fill-opacity:1;fill-rule:nonzero;stroke:none"
             id="path58" /></g><g
           id="g60"
           transform="translate(19,15)"><path
             d="M 0,0 V 2.333 C 0,2.975 -0.525,3.5 -1.166,3.5 H -5.833 C -6.475,3.5 -7,2.975 -7,2.333 V 0 Z"
             style="fill:#29abe2;fill-opacity:1;fill-rule:nonzero;stroke:none"
             id="path62" /></g></g></g></g></svg>
