<?xml version="1.0" encoding="UTF-8" standalone="no"?>
<svg
   xmlns:dc="http://purl.org/dc/elements/1.1/"
   xmlns:cc="http://creativecommons.org/ns#"
   xmlns:rdf="http://www.w3.org/1999/02/22-rdf-syntax-ns#"
   xmlns:svg="http://www.w3.org/2000/svg"
   xmlns="http://www.w3.org/2000/svg"
   version="1.1"
   id="svg2"
   xml:space="preserve"
   width="28"
   height="28"
   viewBox="0 0 28 28"><metadata
     id="metadata8"><rdf:RDF><cc:Work
         rdf:about=""><dc:format>image/svg+xml</dc:format><dc:type
           rdf:resource="http://purl.org/dc/dcmitype/StillImage" /></cc:Work></rdf:RDF></metadata><defs
     id="defs6"><clipPath
       clipPathUnits="userSpaceOnUse"
       id="clipPath18"><path
         d="M 2.5,19 C 2.225,19 2,18.775 2,18.5 v 0 -16 C 2,2.225 2.225,2 2.5,2 v 0 h 16 C 18.776,2 19,2.225 19,2.5 v 0 16 c 0,0.275 -0.224,0.5 -0.5,0.5 v 0 z"
         id="path16" /></clipPath></defs><g
     id="g10"
     transform="matrix(1.3333333,0,0,-1.3333333,0,28)"><g
       id="g12"><g
         id="g14"
         clip-path="url(#clipPath18)"><g
           id="g20"
           transform="translate(9.0005,15.1631)"><path
             d="m 0,0 c -0.799,0 -1.552,-0.312 -2.116,-0.877 -0.566,-0.566 -0.877,-1.318 -0.877,-2.117 0,-0.799 0.311,-1.551 0.877,-2.116 1.131,-1.133 3.102,-1.133 4.233,0 0.566,0.565 0.878,1.317 0.878,2.116 0,0.799 -0.312,1.551 -0.878,2.117 C 1.551,-0.312 0.8,0 0,0 m 0,-6.995 c -1.068,0 -2.073,0.418 -2.828,1.174 -0.755,0.753 -1.173,1.758 -1.173,2.827 0,1.069 0.418,2.073 1.173,2.829 1.51,1.513 4.146,1.513 5.658,0 0.755,-0.755 1.171,-1.76 1.171,-2.829 0,-1.069 -0.416,-2.074 -1.171,-2.829 C 2.074,-6.577 1.07,-6.995 0,-6.995"
             style="fill:#29abe2;fill-opacity:1;fill-rule:nonzero;stroke:none"
             id="path22" /></g><g
           id="g24"
           transform="translate(12.4443,8.0918)"><path
             d="M 0,0 -1.138,1.139 -0.693,1.584 0.444,0.445 Z"
             style="fill:#29abe2;fill-opacity:1;fill-rule:nonzero;stroke:none"
             id="path26" /></g><g
           id="g28"
           transform="translate(15.002,5)"><path
             d="M 0,0 -2.691,2.691 -1.712,3.67 0.979,0.98 Z"
             style="fill:#29abe2;fill-opacity:1;fill-rule:nonzero;stroke:none"
             id="path30" /></g><g
           id="g32"
           transform="translate(18,19)"><path
             d="m 0,0 h -4 v -2 h 3 v -3 h 2 v 4 1 z"
             style="fill:#cccccc;fill-opacity:1;fill-rule:nonzero;stroke:none"
             id="path34" /></g><g
           id="g36"
           transform="translate(19,3)"><path
             d="M 0,0 V 4 H -2 V 0.998 H -5 V -1 h 4 1 z"
             style="fill:#cccccc;fill-opacity:1;fill-rule:nonzero;stroke:none"
             id="path38" /></g><g
           id="g40"
           transform="translate(2.9995,2)"><path
             d="M 0,0 H 4 V 1.998 H 1 V 5 H -1 V 1 0 Z"
             style="fill:#cccccc;fill-opacity:1;fill-rule:nonzero;stroke:none"
             id="path42" /></g><g
           id="g44"
           transform="translate(2,18.0005)"><path
             d="m 0,0 v -4 h 2 v 3 H 5 V 1 H 1 0 Z"
             style="fill:#cccccc;fill-opacity:1;fill-rule:nonzero;stroke:none"
             id="path46" /></g></g></g></g></svg>
