<?xml version="1.0" encoding="UTF-8" standalone="no"?>
<svg
   xmlns:dc="http://purl.org/dc/elements/1.1/"
   xmlns:cc="http://creativecommons.org/ns#"
   xmlns:rdf="http://www.w3.org/1999/02/22-rdf-syntax-ns#"
   xmlns:svg="http://www.w3.org/2000/svg"
   xmlns="http://www.w3.org/2000/svg"
   version="1.1"
   id="svg2"
   xml:space="preserve"
   width="28"
   height="28"
   viewBox="0 0 28 28"><metadata
     id="metadata8"><rdf:RDF><cc:Work
         rdf:about=""><dc:format>image/svg+xml</dc:format><dc:type
           rdf:resource="http://purl.org/dc/dcmitype/StillImage" /></cc:Work></rdf:RDF></metadata><defs
     id="defs6"><clipPath
       clipPathUnits="userSpaceOnUse"
       id="clipPath18"><path
         d="M 0,21 H 21 V 0 H 0 Z"
         id="path16" /></clipPath><clipPath
       clipPathUnits="userSpaceOnUse"
       id="clipPath30"><path
         d="M 0,21 H 21 V 0 H 0 Z"
         id="path28" /></clipPath></defs><g
     id="g10"
     transform="matrix(1.3333333,0,0,-1.3333333,0,28)"><g
       id="g12"><g
         id="g14"
         clip-path="url(#clipPath18)"><g
           id="g20"
           transform="translate(21,0.5)"><path
             d="m 0,0 c 0,-0.275 -0.225,-0.5 -0.5,-0.5 h -20 c -0.275,0 -0.5,0.225 -0.5,0.5 v 20 c 0,0.275 0.225,0.5 0.5,0.5 h 20 C -0.225,20.5 0,20.275 0,20 Z"
             style="fill:#333333;fill-opacity:1;fill-rule:nonzero;stroke:none"
             id="path22" /></g></g></g><g
       id="g24"><g
         id="g26"
         clip-path="url(#clipPath30)"><g
           id="g32"
           transform="translate(6.4434,5.6318)"><path
             d="m 0,0 v -1.754 c 0,-0.483 0.349,-0.878 0.774,-0.878 h 6.567 c 0.425,0 0.773,0.395 0.773,0.878 V 0 Z"
             style="fill:#c1272d;fill-opacity:1;fill-rule:nonzero;stroke:none"
             id="path34" /></g><g
           id="g36"
           transform="translate(14.5576,5.6318)"><path
             d="M 0,0 V 1.754 C 0,2.235 -0.349,2.631 -0.773,2.631 H -7.34 c -0.426,0 -0.774,-0.396 -0.774,-0.877 V 0 Z"
             style="fill:#ed1c24;fill-opacity:1;fill-rule:nonzero;stroke:none"
             id="path38" /></g><g
           id="g40"
           transform="translate(19,15.3691)"><path
             d="M 0,0 V 1.754 C 0,2.235 -0.348,2.631 -0.773,2.631 H -7.34 c -0.425,0 -0.774,-0.396 -0.774,-0.877 V 0 Z"
             style="fill:#29abe2;fill-opacity:1;fill-rule:nonzero;stroke:none"
             id="path42" /></g><g
           id="g44"
           transform="translate(14.6055,12.7383)"><path
             d="m 0,0 c -0.098,-0.436 -0.518,-1.667 -2.229,-2.161 -0.548,-0.068 -1.419,-0.402 -1.877,-1.172 -0.458,0.77 -1.329,1.104 -1.878,1.172 -1.711,0.494 -2.13,1.725 -2.227,2.161 h -0.632 c 0.065,-0.406 0.473,-2.203 2.731,-2.843 l 0.043,-0.009 c 0.068,-0.008 1.655,-0.212 1.655,-1.624 h 0.615 c 0,1.412 1.588,1.616 1.655,1.624 L -2.1,-2.843 C 0.159,-2.203 0.567,-0.406 0.632,0 Z"
             style="fill:#cccccc;fill-opacity:1;fill-rule:nonzero;stroke:none"
             id="path46" /></g><g
           id="g48"
           transform="translate(10.1143,15.3691)"><path
             d="M 0,0 V 1.754 C 0,2.235 -0.348,2.631 -0.773,2.631 H -7.34 c -0.426,0 -0.774,-0.396 -0.774,-0.877 V 0 Z"
             style="fill:#8cc63f;fill-opacity:1;fill-rule:nonzero;stroke:none"
             id="path50" /></g><g
           id="g52"
           transform="translate(10.8857,15.3691)"><path
             d="m 0,0 v -1.754 c 0,-0.482 0.35,-0.877 0.774,-0.877 h 6.567 c 0.426,0 0.773,0.395 0.773,0.877 V 0 Z"
             style="fill:#0071bc;fill-opacity:1;fill-rule:nonzero;stroke:none"
             id="path54" /></g><g
           id="g56"
           transform="translate(2,15.3691)"><path
             d="m 0,0 v -1.754 c 0,-0.482 0.349,-0.877 0.774,-0.877 h 6.567 c 0.425,0 0.773,0.395 0.773,0.877 V 0 Z"
             style="fill:#6d9435;fill-opacity:1;fill-rule:nonzero;stroke:none"
             id="path58" /></g></g></g></g></svg>
