<?xml version="1.0" encoding="UTF-8" standalone="no"?>
<svg
   xmlns:dc="http://purl.org/dc/elements/1.1/"
   xmlns:cc="http://creativecommons.org/ns#"
   xmlns:rdf="http://www.w3.org/1999/02/22-rdf-syntax-ns#"
   xmlns:svg="http://www.w3.org/2000/svg"
   xmlns="http://www.w3.org/2000/svg"
   version="1.1"
   id="svg2"
   xml:space="preserve"
   width="28"
   height="28"
   viewBox="0 0 28 28"><metadata
     id="metadata8"><rdf:RDF><cc:Work
         rdf:about=""><dc:format>image/svg+xml</dc:format><dc:type
           rdf:resource="http://purl.org/dc/dcmitype/StillImage" /></cc:Work></rdf:RDF></metadata><defs
     id="defs6"><clipPath
       clipPathUnits="userSpaceOnUse"
       id="clipPath18"><path
         d="M 0,21 H 21 V 0 H 0 Z"
         id="path16" /></clipPath><clipPath
       clipPathUnits="userSpaceOnUse"
       id="clipPath30"><path
         d="M 0,21 H 21 V 0 H 0 Z"
         id="path28" /></clipPath></defs><g
     id="g10"
     transform="matrix(1.3333333,0,0,-1.3333333,0,28)"><g
       id="g12"><g
         id="g14"
         clip-path="url(#clipPath18)"><g
           id="g20"
           transform="translate(21,0.5)"><path
             d="m 0,0 c 0,-0.275 -0.225,-0.5 -0.5,-0.5 h -20 c -0.275,0 -0.5,0.225 -0.5,0.5 v 20 c 0,0.275 0.225,0.5 0.5,0.5 h 20 C -0.225,20.5 0,20.275 0,20 Z"
             style="fill:#333333;fill-opacity:1;fill-rule:nonzero;stroke:none"
             id="path22" /></g></g></g><g
       id="g24"><g
         id="g26"
         clip-path="url(#clipPath30)"><g
           id="g32"
           transform="translate(3.5952,9.4912)"><path
             d="M 0,0 1.302,2.769 C 1.657,3.522 2.5,4.092 3.265,4.092 h 7.939 v 0.053 c 0,0.564 -0.414,1.028 -0.922,1.028 H 9.304 C 8.797,5.173 8.141,5.548 7.848,6.01 L 7.427,6.671 C 7.133,7.132 6.479,7.509 5.971,7.509 h -6.644 c -0.507,0 -0.922,-0.463 -0.922,-1.028 v -9.876 z"
             style="fill:#29abe2;fill-opacity:1;fill-rule:nonzero;stroke:none"
             id="path34" /></g><g
           id="g36"
           transform="translate(15.8232,4.9092)"><path
             d="m 0,0 c -0.235,-0.499 -0.843,-0.909 -1.351,-0.909 h -10.961 c -0.507,0 -0.73,0.41 -0.495,0.909 l 1.781,3.789 1.302,2.769 c 0.235,0.501 0.843,0.91 1.35,0.91 H 2.588 c 0.507,0 0.73,-0.409 0.495,-0.91 z"
             style="fill:#0071bc;fill-opacity:1;fill-rule:nonzero;stroke:none"
             id="path38" /></g><g
           id="g40"
           transform="translate(18.4111,12.377)"><path
             d="m 0,0 h -10.962 c -0.507,0 -1.115,-0.409 -1.35,-0.91 l -1.302,-2.769 H -0.808 L 0.495,-0.91 C 0.73,-0.409 0.507,0 0,0"
             style="fill:#29abe2;fill-opacity:1;fill-rule:nonzero;stroke:none"
             id="path42" /></g></g></g></g></svg>
