<?xml version="1.0" encoding="UTF-8" standalone="no"?>
<svg
   xmlns:dc="http://purl.org/dc/elements/1.1/"
   xmlns:cc="http://creativecommons.org/ns#"
   xmlns:rdf="http://www.w3.org/1999/02/22-rdf-syntax-ns#"
   xmlns:svg="http://www.w3.org/2000/svg"
   xmlns="http://www.w3.org/2000/svg"
   version="1.1"
   id="svg2"
   xml:space="preserve"
   width="28"
   height="28"
   viewBox="0 0 28 28"><metadata
     id="metadata8"><rdf:RDF><cc:Work
         rdf:about=""><dc:format>image/svg+xml</dc:format><dc:type
           rdf:resource="http://purl.org/dc/dcmitype/StillImage" /></cc:Work></rdf:RDF></metadata><defs
     id="defs6"><clipPath
       clipPathUnits="userSpaceOnUse"
       id="clipPath18"><path
         d="M 0,21 H 21 V 0 H 0 Z"
         id="path16" /></clipPath><clipPath
       clipPathUnits="userSpaceOnUse"
       id="clipPath30"><path
         d="M 0,21 H 21 V 0 H 0 Z"
         id="path28" /></clipPath></defs><g
     id="g10"
     transform="matrix(1.3333333,0,0,-1.3333333,0,28)"><g
       id="g12"><g
         id="g14"
         clip-path="url(#clipPath18)"><g
           id="g20"
           transform="translate(21,0.5)"><path
             d="m 0,0 c 0,-0.275 -0.225,-0.5 -0.5,-0.5 h -20 c -0.275,0 -0.5,0.225 -0.5,0.5 v 20 c 0,0.275 0.225,0.5 0.5,0.5 h 20 C -0.225,20.5 0,20.275 0,20 Z"
             style="fill:#333333;fill-opacity:1;fill-rule:nonzero;stroke:none"
             id="path22" /></g></g></g><g
       id="g24"><g
         id="g26"
         clip-path="url(#clipPath30)"><g
           id="g32"
           transform="translate(6.8584,14.3594)"><path
             d="m 0,0 c -0.196,0.15 -0.234,0.112 -0.084,-0.084 l 3.582,-4.687 c 0.15,-0.195 0.416,-0.212 0.591,-0.039 l 0.638,0.637 c 0.173,0.175 0.156,0.442 -0.04,0.592 z"
             style="fill:#ff2200;fill-opacity:1;fill-rule:nonzero;stroke:none"
             id="path34" /></g><g
           id="g36"
           transform="translate(11.9521,17.7632)"><path
             d="m 0,0 c -0.136,0.626 -0.691,1.095 -1.358,1.095 -0.769,0 -1.392,-0.623 -1.392,-1.391 0,-0.769 0.623,-1.392 1.392,-1.392 0.551,0 1.024,0.324 1.249,0.789 3.078,-0.657 5.394,-3.395 5.394,-6.666 0,-1.008 -0.225,-1.961 -0.619,-2.822 0.279,-0.164 0.531,-0.326 0.764,-0.485 0.48,1.004 0.756,2.122 0.756,3.307 C 6.186,-3.834 3.524,-0.713 0,0"
             style="fill:#ff2200;fill-opacity:1;fill-rule:nonzero;stroke:none"
             id="path38" /></g><g
           id="g40"
           transform="translate(4.2568,7.2998)"><path
             d="m 0,0 c -0.416,0.881 -0.656,1.861 -0.656,2.898 0,1.847 0.726,3.578 2.047,4.871 C 1.568,7.942 1.57,8.228 1.396,8.405 1.223,8.582 0.938,8.586 0.76,8.411 -0.733,6.948 -1.557,4.989 -1.557,2.898 c 0,-1.218 0.291,-2.365 0.795,-3.39 C -0.531,-0.332 -0.279,-0.168 0,0"
             style="fill:#ff2200;fill-opacity:1;fill-rule:nonzero;stroke:none"
             id="path42" /></g><g
           id="g44"
           transform="translate(10.499,4.6143)"><path
             d="m 0,0 c -0.551,0 -1,0.451 -1,1.002 0,0.551 0.449,1.002 1,1.002 0.553,0 1,-0.451 1,-1.002 C 1,0.451 0.553,0 0,0 M -0.001,3.006 C -1.104,3.006 -2,2.104 -2,1.002 -2,-0.1 -1.104,-1 -0.001,-1 1.105,-1 2,-0.1 2,1.002 2,2.104 1.105,3.006 -0.001,3.006"
             style="fill:#29abe2;fill-opacity:1;fill-rule:nonzero;stroke:none"
             id="path46" /></g><g
           id="g48"
           transform="translate(6.7139,5.6162)"><path
             d="m 0,0 c 0,1.494 0.874,2.791 2.137,3.406 -4.191,-0.693 -6.851,-3.427 -6.851,-3.427 0,0 2.721,-2.797 6.991,-3.454 C 0.938,-2.889 0,-1.551 0,0"
             style="fill:#29abe2;fill-opacity:1;fill-rule:nonzero;stroke:none"
             id="path50" /></g><g
           id="g52"
           transform="translate(12.1455,9.0244)"><path
             d="m 0,0 c 1.266,-0.616 2.139,-1.912 2.139,-3.408 0,-1.551 -0.938,-2.89 -2.279,-3.475 4.272,0.654 6.994,3.453 6.994,3.453 0,0 -2.663,2.736 -6.854,3.43"
             style="fill:#29abe2;fill-opacity:1;fill-rule:nonzero;stroke:none"
             id="path54" /></g></g></g></g></svg>
